<svg width="201" xmlns="http://www.w3.org/2000/svg" height="261" id="screenshot-1e27c094-bdcd-80b5-8007-332296d82aec" viewBox="0 0 201 261" xmlns:xlink="http://www.w3.org/1999/xlink" fill="none" version="1.1"><g id="shape-1e27c094-bdcd-80b5-8007-332296d82aec" rx="0" ry="0"><g id="shape-1e27c094-bdcd-80b5-8007-3320ba74d06d"><g class="frame-container-wrapper"><g class="frame-container-blur"><g class="frame-container-shadows"><g fill="none"><g class="fills" id="fills-1e27c094-bdcd-80b5-8007-3320ba74d06d"><rect rx="0" ry="0" x="65.92922615416313" y="86.43316821833253" width="68.14162847608736" height="105.13362216056282" transform="matrix(2.935063, 0.000001, -0.000001, 2.320856, -193.506312, -183.599020)" class="frame-background"/></g><g class="frame-children"><g id="shape-1e27c094-bdcd-80b5-8007-3320ba74d06e"><g class="fills" id="fills-1e27c094-bdcd-80b5-8007-3320ba74d06e"><path d="M44.00001907348633,72.99896240234375C44.00001907348633,72.08245849609375,44.02254104614258,71.16656494140625,44.06752395629883,70.25128173828125C44.11244583129883,69.33587646484375,44.17982864379883,68.42218017578125,44.26961135864258,67.51007080078125C44.35945510864258,66.59808349609375,44.47163772583008,65.68878173828125,44.60609817504883,64.78216552734375C44.74055862426758,63.87567138671875,44.89723587036133,62.97296142578125,45.07600784301758,62.07403564453125C45.25484085083008,61.17523193359375,45.45552444458008,60.28131103515625,45.67824172973633,59.39227294921875C45.90089797973633,58.50323486328125,46.14522171020508,57.62030029296875,46.41133499145508,56.74322509765625C46.67732620239258,55.86627197265625,46.96474075317383,54.99639892578125,47.27351760864258,54.13348388671875C47.58223342895508,53.27056884765625,47.91200637817383,52.41583251953125,48.26271438598633,51.56903076171875C48.61336135864258,50.72235107421875,48.98463821411133,49.88482666015625,49.37648391723633,49.05633544921875C49.76839065551758,48.22784423828125,50.18031692504883,47.40948486328125,50.61232376098633,46.60125732421875C51.04433059692383,45.79302978515625,51.49592971801758,44.99578857421875,51.96712112426758,44.20977783203125C52.43825149536133,43.42364501953125,52.92836380004883,42.64959716796875,53.43751907348633,41.88763427734375C53.94673538208008,41.12554931640625,54.47426223754883,40.37652587890625,55.02022171020508,39.64031982421875C55.56612014770508,38.90435791015625,56.12984085083008,38.18206787109375,56.71120071411133,37.47357177734375C57.29262161254883,36.76519775390625,57.89107131958008,36.07147216796875,58.50648880004883,35.39239501953125C59.12196731567383,34.71331787109375,59.75374221801758,34.04974365234375,60.40169143676758,33.40167236328125C61.04976272583008,32.75372314453125,61.71333694458008,32.12188720703125,62.39241409301758,31.50653076171875C63.07143020629883,30.89105224609375,63.76515579223633,30.29254150390625,64.47359466552734,29.71112060546875C65.18209075927734,29.12982177734375,65.9043197631836,28.56610107421875,66.6404037475586,28.02020263671875C67.37654876708984,27.47430419921875,68.1256332397461,26.94671630859375,68.8875961303711,26.43756103515625C69.64962005615234,25.92840576171875,70.42366790771484,25.43817138671875,71.20980072021484,24.967041015625C71.9958724975586,24.495849609375,72.7929916381836,24.0443115234375,73.6012191772461,23.61224365234375C74.40950775146484,23.18023681640625,75.22786712646484,22.768310546875,76.0562973022461,22.37646484375C76.8847885131836,21.984619140625,77.72237396240234,21.61334228515625,78.5691146850586,21.26263427734375C79.4157943725586,20.91192626953125,80.27059173583984,20.58221435546875,81.13350677490234,20.2734375C81.9963607788086,19.9647216796875,82.86629486083984,19.67730712890625,83.7433090209961,19.4112548828125C84.62032318115234,19.145263671875,85.5033187866211,18.90087890625,86.39229583740234,18.67822265625C87.28133392333984,18.45550537109375,88.17525482177734,18.2547607421875,89.0741195678711,18.07598876953125C89.97298431396484,17.897216796875,90.87569427490234,17.74053955078125,91.78218841552734,17.6060791015625C92.68880462646484,17.47161865234375,93.59810638427734,17.35943603515625,94.51009368896484,17.2696533203125C95.42220306396484,17.1798095703125,96.33589935302734,17.1124267578125,97.25130462646484,17.06744384765625C98.1666488647461,17.0224609375,99.0825424194336,17,99.99898529052734,17L100.0009994506836,17C100.91768646240234,17,101.83370208740234,17.0224609375,102.74898529052734,17.06744384765625C103.6643295288086,17.1124267578125,104.5780258178711,17.1798095703125,105.4900131225586,17.2696533203125C106.4020004272461,17.35943603515625,107.31136322021484,17.47161865234375,108.2180404663086,17.6060791015625C109.1246566772461,17.74053955078125,110.0273666381836,17.897216796875,110.92598724365234,18.07598876953125C111.82466888427734,18.2547607421875,112.71871185302734,18.45550537109375,113.60799407958984,18.67822265625C114.49666595458984,18.90087890625,115.3796615600586,19.145263671875,116.25704193115234,19.4112548828125C117.1336898803711,19.67730712890625,118.0033187866211,19.9647216796875,118.8659896850586,20.2734375C119.72933197021484,20.58221435546875,120.5843734741211,20.91192626953125,121.43099212646484,21.26263427734375C122.27767181396484,21.61334228515625,123.1153793334961,21.984619140625,123.9439926147461,22.37646484375C124.7719955444336,22.768310546875,125.5903549194336,23.18023681640625,126.39900970458984,23.61224365234375C127.20699310302734,24.0443115234375,128.0039825439453,24.495849609375,128.7899932861328,24.967041015625C129.5760040283203,25.43817138671875,130.34999084472656,25.92840576171875,131.1120147705078,26.43756103515625C131.8739776611328,26.94671630859375,132.6233673095703,27.47430419921875,133.36000061035156,28.02020263671875C134.0960235595703,28.56610107421875,134.81800842285156,29.12982177734375,135.52601623535156,29.71112060546875C136.2346954345703,30.29254150390625,136.9286651611328,30.89105224609375,137.6079864501953,31.50653076171875C138.2866973876953,32.12188720703125,138.9500274658203,32.75372314453125,139.59803771972656,33.40167236328125C140.24598693847656,34.04974365234375,140.8780059814453,34.71331787109375,141.49403381347656,35.39239501953125C142.1093292236328,36.07147216796875,142.70765686035156,36.76519775390625,143.2890167236328,37.47357177734375C143.8703155517578,38.18206787109375,144.4340362548828,38.90435791015625,144.97999572753906,39.64031982421875C145.52601623535156,40.37652587890625,146.05335998535156,41.12554931640625,146.56202697753906,41.88763427734375C147.0713653564453,42.64959716796875,147.56166076660156,43.42364501953125,148.0330352783203,44.20977783203125C148.5043487548828,44.99578857421875,148.9560089111328,45.79302978515625,149.3880157470703,46.60125732421875C149.8200225830078,47.40948486328125,150.23170471191406,48.22784423828125,150.6230010986328,49.05633544921875C151.01502990722656,49.88482666015625,151.38636779785156,50.72235107421875,151.7370147705078,51.56903076171875C152.08766174316406,52.41583251953125,152.4176788330078,53.27056884765625,152.7270050048828,54.13348388671875C153.03565979003906,54.99639892578125,153.32301330566406,55.86627197265625,153.58900451660156,56.74322509765625C153.85499572753906,57.62030029296875,154.0993194580078,58.50323486328125,154.32203674316406,59.39227294921875C154.54469299316406,60.28131103515625,154.7453155517578,61.17523193359375,154.9240264892578,62.07403564453125C155.10267639160156,62.97296142578125,155.2593536376953,63.87567138671875,155.3939971923828,64.78216552734375C155.52870178222656,65.68878173828125,155.6407012939453,66.59808349609375,155.72999572753906,67.51007080078125C155.8200225830078,68.42218017578125,155.8876495361328,69.33587646484375,155.93299865722656,70.25128173828125C155.97767639160156,71.16656494140625,156.00001525878906,72.08245849609375,156.00001525878906,72.99896240234375L156.00001525878906,79.16766357421875C156.1726837158203,79.19683837890625,156.34498596191406,79.22991943359375,156.51698303222656,79.26666259765625C156.68836975097656,79.30352783203125,156.85902404785156,79.34405517578125,157.0290069580078,79.38824462890625C157.1983184814453,79.43255615234375,157.3670196533203,79.48052978515625,157.5349884033203,79.53216552734375C157.7023468017578,79.58380126953125,157.86866760253906,79.63922119140625,158.0340118408203,79.69818115234375C158.19935607910156,79.75714111328125,158.3633575439453,79.81964111328125,158.52601623535156,79.88592529296875C158.6886749267578,79.95196533203125,158.8496856689453,80.02166748046875,159.0089874267578,80.09490966796875C159.16835021972656,80.16815185546875,159.3260040283203,80.24481201171875,159.4820098876953,80.32501220703125C159.6380157470703,80.40509033203125,159.7923126220703,80.48858642578125,159.9450225830078,80.57550048828125C160.0970001220703,80.66241455078125,160.24732971191406,80.75262451171875,160.39601135253906,80.84613037109375C160.54469299316406,80.93963623046875,160.6909942626953,81.03631591796875,160.8350372314453,81.13629150390625C160.97901916503906,81.23614501953125,161.12098693847656,81.33917236328125,161.26100158691406,81.44537353515625C161.4003448486328,81.55145263671875,161.5376739501953,81.66070556640625,161.67298889160156,81.77276611328125C161.8076934814453,81.88494873046875,161.9400177001953,82.00006103515625,162.0700225830078,82.11798095703125C162.2000274658203,82.23602294921875,162.3269805908203,82.35675048828125,162.4510040283203,82.48028564453125C162.57569885253906,82.60382080078125,162.69764709472656,82.73016357421875,162.81703186035156,82.85894775390625C162.93568420410156,82.98785400390625,163.05165100097656,83.11932373046875,163.1649932861328,83.25323486328125C163.27833557128906,83.38726806640625,163.38868713378906,83.52374267578125,163.49598693847656,83.66253662109375C163.6033477783203,83.80133056640625,163.7073516845703,83.94244384765625,163.80799865722656,84.08587646484375C163.90931701660156,84.22930908203125,164.00733947753906,84.37481689453125,164.1020050048828,84.52252197265625C164.19667053222656,84.67022705078125,164.28797912597656,84.81988525390625,164.37599182128906,84.97161865234375C164.46400451660156,85.12335205078125,164.5490264892578,85.27691650390625,164.63099670410156,85.43231201171875C164.7123565673828,85.58770751953125,164.7899932861328,85.74481201171875,164.86402893066406,85.90362548828125C164.9386749267578,86.06256103515625,165.00965881347656,86.22296142578125,165.0769805908203,86.38482666015625C165.14503479003906,86.54681396484375,165.20899963378906,86.71014404296875,165.2689971923828,86.87493896484375C165.32899475097656,87.03973388671875,165.3856964111328,87.20562744140625,165.43898010253906,87.37286376953125C165.49232482910156,87.54010009765625,165.5417022705078,87.70843505859375,165.5869903564453,87.87786865234375C165.63233947753906,88.04730224609375,165.67433166503906,88.21759033203125,165.71302795410156,88.38873291015625C165.75099182128906,88.55999755859375,165.7853546142578,88.73199462890625,165.8159942626953,88.90472412109375C165.84669494628906,89.07757568359375,165.8733673095703,89.25091552734375,165.89601135253906,89.42474365234375C165.91932678222656,89.59869384765625,165.9386749267578,89.77313232421875,165.95399475097656,89.94793701171875C165.9693145751953,90.12261962890625,165.9806671142578,90.29766845703125,165.9879913330078,90.47283935546875C165.99598693847656,90.64813232421875,166.00001525878906,90.82354736328125,166.00001525878906,90.99896240234375L166.00001525878906,105.00103759765625C166.00001525878906,105.17974853515625,165.99598693847656,105.35833740234375,165.9879913330078,105.53680419921875C165.97999572753906,105.71527099609375,165.96803283691406,105.89361572265625,165.9519805908203,106.07159423828125C165.9359893798828,106.24957275390625,165.91603088378906,106.42718505859375,165.89198303222656,106.60430908203125C165.86866760253906,106.78131103515625,165.8410186767578,106.95782470703125,165.8090362548828,107.13372802734375C165.77699279785156,107.30950927734375,165.74134826660156,107.48455810546875,165.7019805908203,107.65887451171875C165.6626739501953,107.83319091796875,165.6193389892578,108.00640869140625,165.57203674316406,108.17877197265625C165.52467346191406,108.35113525390625,165.4733428955078,108.52227783203125,165.41798400878906,108.69232177734375C165.3633575439453,108.86236572265625,165.30470275878906,109.03106689453125,165.2420196533203,109.19842529296875C165.17933654785156,109.36590576171875,165.1129913330078,109.53179931640625,165.04298400878906,109.69622802734375C164.97303771972656,109.86077880859375,164.8993682861328,110.02349853515625,164.82203674316406,110.18463134765625C164.7453155517578,110.34588623046875,164.66468811035156,110.50518798828125,164.5800323486328,110.66278076171875C164.49598693847656,110.82037353515625,164.40834045410156,110.97601318359375,164.31703186035156,111.12957763671875C164.2256622314453,111.28326416015625,164.13099670410156,111.43475341796875,164.0330352783203,111.58416748046875C163.9350128173828,111.73358154296875,163.8336944580078,111.88067626953125,163.72901916503906,112.02557373046875C163.6243438720703,112.17047119140625,163.5163116455078,112.31304931640625,163.4049835205078,112.45306396484375C163.29432678222656,112.59320068359375,163.18031311035156,112.73065185546875,163.06300354003906,112.86553955078125C162.9463653564453,113.00054931640625,162.8263702392578,113.13287353515625,162.70301818847656,113.26251220703125C162.5796661376953,113.39202880859375,162.4536895751953,113.51885986328125,162.3250274658203,113.64276123046875C162.1963653564453,113.76678466796875,162.0650177001953,113.88787841796875,161.9309844970703,114.00592041015625C161.79701232910156,114.12408447265625,161.6603546142578,114.23907470703125,161.52101135253906,114.35113525390625C161.3816680908203,114.46307373046875,161.24000549316406,114.57196044921875,161.0960235595703,114.67755126953125C160.9519805908203,114.78326416015625,160.80567932128906,114.88568115234375,160.65699768066406,114.98480224609375C160.50831604003906,115.08392333984375,160.35731506347656,115.17962646484375,160.20399475097656,115.27203369140625C160.0513458251953,115.36444091796875,159.8963165283203,115.45343017578125,159.73902893066406,115.53875732421875C159.5823516845703,115.62420654296875,159.4236602783203,115.70623779296875,159.2630157470703,115.78460693359375C159.1023712158203,115.86297607421875,158.9400177001953,115.93768310546875,158.77601623535156,116.0086669921875C158.6120147705078,116.079833984375,158.44667053222656,116.1473388671875,158.2799835205078,116.2110595703125C158.1133575439453,116.2747802734375,157.9450225830078,116.334716796875,157.7749786376953,116.390869140625C157.6056671142578,116.4471435546875,157.4350128173828,116.49951171875,157.2630157470703,116.548095703125C157.0910186767578,116.5966796875,156.91798400878906,116.641357421875,156.74403381347656,116.6822509765625C156.5700225830078,116.72314453125,156.39503479003906,116.760009765625,156.21900939941406,116.7930908203125C156.0436553955078,116.826171875,155.86732482910156,116.855224609375,155.6900177001953,116.88037109375C155.6280059814453,117.473388671875,155.5559844970703,118.0655517578125,155.47401428222656,118.6568603515625C155.3926544189453,119.248291015625,155.30165100097656,119.837890625,155.2010040283203,120.4259033203125C155.1010284423828,121.013916015625,154.99134826660156,121.6002197265625,154.8720245361328,122.1849365234375C154.75270080566406,122.76953125,154.6239776611328,123.3519287109375,154.4860382080078,123.931884765625C154.34864807128906,124.5125732421875,154.20167541503906,125.0909423828125,154.0449981689453,125.6668701171875C153.8889923095703,126.242919921875,153.72364807128906,126.81591796875,153.5490264892578,127.3858642578125C153.3743438720703,127.95654296875,153.19068908691406,128.5242919921875,152.9980010986328,129.0888671875C152.80531311035156,129.653564453125,152.60365295410156,130.2149658203125,152.3930206298828,130.77294921875C152.1823272705078,131.33154296875,151.96302795410156,131.88623046875,151.73500061035156,132.4368896484375C151.50636291503906,132.98828125,151.2689971923828,133.53564453125,151.0230255126953,134.078857421875C150.77699279785156,134.6229248046875,150.5226593017578,135.16259765625,150.26002502441406,135.6978759765625C149.9966583251953,136.2332763671875,149.72499084472656,136.7642822265625,149.4450225830078,137.2908935546875C149.1649932861328,137.8182373046875,148.8766632080078,138.340576171875,148.5800323486328,138.85791015625C148.2826690673828,139.375244140625,147.97767639160156,139.887939453125,147.6649932861328,140.3958740234375C147.35169982910156,140.9039306640625,147.0303497314453,141.4066162109375,146.7010040283203,141.9039306640625C146.3716583251953,142.4012451171875,146.03468322753906,142.8935546875,145.6900177001953,143.380859375C145.3446807861328,143.8675537109375,144.9920196533203,144.3486328125,144.6320343017578,144.823974609375C144.2713165283203,145.2991943359375,143.90333557128906,145.7689208984375,143.5280303955078,146.23291015625C143.1526641845703,146.6962890625,142.77003479003906,147.1539306640625,142.38002014160156,147.60595703125C141.99000549316406,148.0572509765625,141.59303283691406,148.502197265625,141.18898010253906,148.94091796875C140.78431701660156,149.379638671875,140.3730010986328,149.8118896484375,139.9550323486328,150.2379150390625C139.53700256347656,150.6639404296875,139.11231994628906,151.0828857421875,138.6809844970703,151.494873046875C138.24964904785156,151.9068603515625,137.81166076660156,152.3118896484375,137.3670196533203,152.7099609375C136.92298889160156,153.10791015625,136.47267150878906,153.4989013671875,136.01600646972656,153.8829345703125C135.5586700439453,154.2662353515625,135.0956573486328,154.642578125,134.6270294189453,155.011962890625C134.15834045410156,155.380615234375,133.6836700439453,155.741943359375,133.20301818847656,156.095947265625C132.7223663330078,156.44921875,132.23634338378906,156.794921875,131.74501037597656,157.1329345703125C131.25367736816406,157.4715576171875,130.7570343017578,157.8018798828125,130.25502014160156,158.1239013671875C129.7530059814453,158.446533203125,129.2456817626953,158.7608642578125,128.7329864501953,159.06689453125C128.2210235595703,159.3729248046875,127.7043685913086,159.6708984375,127.1830062866211,159.9609375C126.6610336303711,160.250244140625,126.1350326538086,160.53125,125.6050033569336,160.803955078125C125.0743637084961,161.0765380859375,124.5393295288086,161.3409423828125,124.0000228881836,161.596923828125L124.0000228881836,179.9998779296875L159.50099182128906,179.9998779296875C160.1636505126953,179.9998779296875,160.8260040283203,180.0162353515625,161.4879913330078,180.0489501953125C162.1499786376953,180.08154296875,162.8109893798828,180.1302490234375,163.4710235595703,180.1949462890625C164.1303253173828,180.2596435546875,164.7876739501953,180.340576171875,165.44300842285156,180.4378662109375C166.09901428222656,180.5352783203125,166.7520294189453,180.6485595703125,167.40199279785156,180.7779541015625C168.05201721191406,180.9072265625,168.6983184814453,181.0526123046875,169.3410186767578,181.2138671875C169.9843292236328,181.3746337890625,170.6230010986328,181.55126953125,171.2570343017578,181.743896484375C171.8916778564453,181.9359130859375,172.52101135253906,182.1435546875,173.14503479003906,182.366943359375C173.7689971923828,182.5902099609375,174.38697814941406,182.828857421875,174.9989776611328,183.0828857421875C175.6116485595703,183.3363037109375,176.21766662597656,183.6046142578125,176.81703186035156,183.887939453125C177.41566467285156,184.1712646484375,178.00733947753906,184.46923828125,178.5919952392578,184.7818603515625C179.17665100097656,185.0946044921875,179.75331115722656,185.4212646484375,180.32203674316406,185.761962890625C180.89002990722656,186.1025390625,181.4496612548828,186.4569091796875,182.00099182128906,186.824951171875C182.5523223876953,187.193603515625,183.09400939941406,187.5751953125,183.62599182128906,187.969970703125C184.1586456298828,188.3646240234375,184.6809844970703,188.772216796875,185.19300842285156,189.19287109375C185.70570373535156,189.613525390625,186.2073516845703,190.0462646484375,186.69801330566406,190.490966796875C187.18934631347656,190.936279296875,187.66932678222656,191.393310546875,188.1380157470703,191.8619384765625C188.60670471191406,192.33056640625,189.0636749267578,192.810302734375,189.5089874267578,193.3009033203125C189.9536895751953,193.792236328125,190.38636779785156,194.2943115234375,190.80702209472656,194.806884765625C191.22767639160156,195.3189697265625,191.6353302001953,195.84130859375,192.0299835205078,196.3739013671875C192.42469787597656,196.9058837890625,192.8063507080078,197.4476318359375,193.1750030517578,197.9989013671875C193.54298400878906,198.55029296875,193.89735412597656,199.10986328125,194.2379913330078,199.677978515625C194.5786895751953,200.24658203125,194.9053497314453,200.8232421875,195.21803283691406,201.407958984375C195.53065490722656,201.9925537109375,195.8286895751953,202.584228515625,196.1120147705078,203.182861328125C196.3953399658203,203.7822265625,196.6636505126953,204.3883056640625,196.91700744628906,205.0009765625C197.17103576660156,205.6129150390625,197.40968322753906,206.23095703125,197.6330108642578,206.8548583984375C197.85633850097656,207.4788818359375,198.06398010253906,208.1082763671875,198.25599670410156,208.742919921875C198.4486846923828,209.376953125,198.6253204345703,210.015625,198.78602600097656,210.658935546875C198.9473419189453,211.3016357421875,199.09266662597656,211.9478759765625,199.2220001220703,212.597900390625C199.35133361816406,213.2479248046875,199.4646759033203,213.90087890625,199.56202697753906,214.556884765625C199.65931701660156,215.2122802734375,199.74037170410156,215.86962890625,199.8050079345703,216.5289306640625C199.86964416503906,217.18896484375,199.91835021972656,217.8499755859375,199.9510040283203,218.511962890625C199.98365783691406,219.1739501953125,200.00001525878906,219.8363037109375,200.00001525878906,220.4989013671875L200.00001525878906,260.9998779296875L0.0000197492481674999,260.9998779296875L0.0000197492481674999,220.4989013671875C0.0000197492481674999,219.8363037109375,0.016255101189017296,219.1739501953125,0.04878683760762215,218.511962890625C0.08131857961416245,217.8499755859375,0.13005514442920685,217.18896484375,0.19502706825733185,216.5289306640625C0.25999900698661804,215.86962890625,0.34108421206474304,215.2122802734375,0.43834373354911804,214.556884765625C0.5356032252311707,213.90087890625,0.6488844752311707,213.2479248046875,0.7781874537467957,212.597900390625C0.9074904322624207,211.9478759765625,1.0526626110076904,211.3016357421875,1.2137038707733154,210.658935546875C1.3747451305389404,210.015625,1.5514724254608154,209.376953125,1.7438857555389404,208.742919921875C1.9362685680389404,208.1082763671875,2.1441237926483154,207.4788818359375,2.3674209117889404,206.8548583984375C2.5906875133514404,206.23095703125,2.8291518688201904,205.6129150390625,3.0828139781951904,205.0009765625C3.3364455699920654,204.3883056640625,3.6049697399139404,203.7822265625,3.8883559703826904,203.182861328125C4.171711444854736,202.584228515625,4.469624042510986,201.9925537109375,4.782063007354736,201.407958984375C5.094501972198486,200.8232421875,5.421101093292236,200.24658203125,5.761860370635986,199.677978515625C6.102589130401611,199.10986328125,6.457081317901611,198.55029296875,6.825306415557861,197.9989013671875C7.193562030792236,197.4476318359375,7.575092792510986,196.9058837890625,7.969898700714111,196.3739013671875C8.36473560333252,195.84130859375,8.77238941192627,195.3189697265625,9.19286060333252,194.806884765625C9.61333179473877,194.2943115234375,10.046101570129395,193.7926025390625,10.49120044708252,193.3018798828125C10.93632984161377,192.810546875,11.39323902130127,192.33056640625,11.861897468566895,191.8619384765625C12.33055591583252,191.393310546875,12.810444831848145,190.936279296875,13.30150318145752,190.490966796875C13.792622566223145,190.0462646484375,14.29436206817627,189.613525390625,14.80669116973877,189.19287109375C15.31902027130127,188.772216796875,15.841389656066895,188.3646240234375,16.373798370361328,187.969970703125C16.906116485595703,187.5751953125,17.447864532470703,187.193603515625,17.998981475830078,186.824951171875C18.550067901611328,186.4569091796875,19.109851837158203,186.1025390625,19.678394317626953,185.761962890625C20.246875762939453,185.4212646484375,20.823352813720703,185.0946044921875,21.407886505126953,184.7818603515625C21.992420196533203,184.46923828125,22.584278106689453,184.1712646484375,23.183399200439453,183.887939453125C23.782581329345703,183.6046142578125,24.388355255126953,183.3363037109375,25.000690460205078,183.0828857421875C25.613025665283203,182.828857421875,26.231220245361328,182.5902099609375,26.855304718017578,182.366943359375C27.479389190673828,182.1435546875,28.108539581298828,181.9359130859375,28.742816925048828,181.743896484375C29.377033233642578,181.55126953125,30.015583038330078,181.3746337890625,30.658527374267578,181.2138671875C31.301471710205078,181.0526123046875,31.947956085205078,180.9072265625,32.59804153442383,180.7779541015625C33.24806594848633,180.6485595703125,33.90095901489258,180.5352783203125,34.55659866333008,180.4378662109375C35.21223831176758,180.340576171875,35.86983108520508,180.2596435546875,36.52943801879883,180.1949462890625C37.18898391723633,180.1302490234375,37.84981155395508,180.08154296875,38.51179885864258,180.0489501953125C39.17378616333008,180.0162353515625,39.83620071411133,179.9998779296875,40.49898147583008,179.9998779296875L76.0000228881836,179.9998779296875L76.0000228881836,161.596923828125C75.4609603881836,161.3409423828125,74.92610931396484,161.0765380859375,74.3955307006836,160.803955078125C73.8648910522461,160.53125,73.33882904052734,160.250244140625,72.81722259521484,159.9609375C72.2955551147461,159.6708984375,71.7787094116211,159.3729248046875,71.2666244506836,159.06689453125C70.75447845458984,158.7608642578125,70.24739837646484,158.446533203125,69.74532318115234,158.1239013671875C69.2433090209961,157.8018798828125,68.74654388427734,157.4715576171875,68.2550277709961,157.1329345703125C67.76351165771484,156.794921875,67.2774887084961,156.44921875,66.7971420288086,156.095947265625C66.3166732788086,155.741943359375,65.84200286865234,155.380615234375,65.37313079833984,155.011962890625C64.9041976928711,154.642578125,64.4413070678711,154.2662353515625,63.98439407348633,153.8829345703125C63.52754592895508,153.4989013671875,63.07692337036133,153.10791015625,62.63258743286133,152.7099609375C62.18819046020508,152.3118896484375,61.75032424926758,151.9068603515625,61.31892776489258,151.494873046875C60.88747024536133,151.0828857421875,60.46272659301758,150.6639404296875,60.04469680786133,150.2379150390625C59.62666702270508,149.8118896484375,59.21553421020508,149.379638671875,58.81129837036133,148.94091796875C58.40712356567383,148.502197265625,58.01002883911133,148.0572509765625,57.62001419067383,147.60595703125C57.22999954223633,147.1539306640625,56.84730911254883,146.6962890625,56.47188186645508,146.23291015625C56.09657669067383,145.7689208984375,55.72871780395508,145.2991943359375,55.36842727661133,144.823974609375C55.00801467895508,144.3486328125,54.65535354614258,143.8675537109375,54.31038284301758,143.380859375C53.96541213989258,142.8935546875,53.62825393676758,142.4012451171875,53.29903030395508,141.9039306640625C52.96980667114258,141.4066162109375,52.64863967895508,140.9039306640625,52.33540725708008,140.3958740234375C52.02223587036133,139.887939453125,51.71718215942383,139.375244140625,51.42042922973633,138.85791015625C51.12361526489258,138.340576171875,50.83516311645508,137.8182373046875,50.55513381958008,137.2908935546875C50.27498245239258,136.7642822265625,50.00331497192383,136.2332763671875,49.74019241333008,135.6978759765625C49.47713088989258,135.16259765625,49.22267532348633,134.6229248046875,48.97670364379883,134.078857421875C48.73085403442383,133.53564453125,48.49373245239258,132.98828125,48.26533889770508,132.4368896484375C48.03700637817383,131.88623046875,47.81746292114258,131.33154296875,47.60683059692383,130.77294921875C47.39613723754883,130.2149658203125,47.19441604614258,129.653564453125,47.00172805786133,129.0888671875C46.80904006958008,128.5242919921875,46.62538528442383,127.95654296875,46.45082473754883,127.3858642578125C46.27620315551758,126.81591796875,46.11079788208008,126.242919921875,45.95460891723633,125.6668701171875C45.79835891723633,125.0909423828125,45.65132522583008,124.5125732421875,45.51350784301758,123.931884765625C45.37575149536133,123.3519287109375,45.24733352661133,122.76953125,45.12813186645508,122.1849365234375C45.00899124145508,121.6002197265625,44.89918899536133,121.013916015625,44.79878616333008,120.4259033203125C44.69838333129883,119.837890625,44.60744094848633,119.248291015625,44.52583694458008,118.6568603515625C44.44429397583008,118.0655517578125,44.37215042114258,117.473388671875,44.30952835083008,116.88037109375C44.13258743286133,116.855224609375,43.95631790161133,116.826171875,43.78071975708008,116.7930908203125C43.60506057739258,116.760009765625,43.43025588989258,116.72314453125,43.25630569458008,116.6822509765625C43.08229446411133,116.641357421875,42.90932083129883,116.5966796875,42.73738479614258,116.548095703125C42.56538772583008,116.49951171875,42.39455032348633,116.4471435546875,42.22493362426758,116.390869140625C42.05531692504883,116.334716796875,41.88704299926758,116.2747802734375,41.72011184692383,116.2110595703125C41.55311965942383,116.1473388671875,41.38765335083008,116.079833984375,41.22371292114258,116.0086669921875C41.05977249145508,115.93768310546875,40.89754104614258,115.86297607421875,40.73689651489258,115.78460693359375C40.57631301879883,115.70623779296875,40.41756057739258,115.62420654296875,40.26063919067383,115.53875732421875C40.10359573364258,115.45343017578125,39.94862747192383,115.36444091796875,39.79573440551758,115.27203369140625C39.64271926879883,115.17962646484375,39.49190139770508,115.08392333984375,39.34321975708008,114.98480224609375C39.19453811645508,114.88568115234375,39.04811477661133,114.78326416015625,38.90401077270508,114.67755126953125C38.75990676879883,114.57196044921875,38.61818313598633,114.46307373046875,38.47890090942383,114.35113525390625C38.33961868286133,114.23907470703125,38.20296096801758,114.12408447265625,38.06892776489258,114.00592041015625C37.93477249145508,113.88787841796875,37.80336380004883,113.76678466796875,37.67464065551758,113.64276123046875C37.54591751098633,113.51885986328125,37.42006301879883,113.39202880859375,37.29701614379883,113.26251220703125C37.17403030395508,113.13287353515625,37.05397415161133,113.00054931640625,36.93678665161133,112.86553955078125C36.81966018676758,112.73065185546875,36.70558547973633,112.59320068359375,36.59462356567383,112.45306396484375C36.48360061645508,112.31304931640625,36.37581253051758,112.17047119140625,36.27119827270508,112.02557373046875C36.16658401489258,111.88067626953125,36.06526565551758,111.73358154296875,35.96718215942383,111.58416748046875C35.86915969848633,111.43475341796875,35.77449417114258,111.28326416015625,35.68318557739258,111.12957763671875C35.59193801879883,110.97601318359375,35.50416946411133,110.82037353515625,35.41981887817383,110.66278076171875C35.33546829223633,110.50518798828125,35.25471878051758,110.34588623046875,35.17750930786133,110.18463134765625C35.10029983520508,110.02349853515625,35.02675247192383,109.86077880859375,34.95680618286133,109.69622802734375C34.88685989379883,109.53179931640625,34.82063674926758,109.36590576171875,34.75813674926758,109.19842529296875C34.69563674926758,109.03106689453125,34.63692092895508,108.86236572265625,34.58192825317383,108.69232177734375C34.52693557739258,108.52227783203125,34.47572708129883,108.35113525390625,34.42842483520508,108.17877197265625C34.38112258911133,108.00640869140625,34.33772659301758,107.83319091796875,34.29811477661133,107.65887451171875C34.25850296020508,107.48455810546875,34.22285842895508,107.30950927734375,34.19112014770508,107.13372802734375C34.15932083129883,106.95782470703125,34.13148880004883,106.78131103515625,34.10762405395508,106.60430908203125C34.08375930786133,106.42718505859375,34.06386184692383,106.24957275390625,34.04793167114258,106.07159423828125C34.03194046020508,105.89361572265625,34.01991653442383,105.71527099609375,34.01198196411133,105.53680419921875C34.00398635864258,105.35833740234375,34.00001907348633,105.17974853515625,34.00001907348633,105.00103759765625L34.00001907348633,90.99896240234375C34.00001907348633,90.82354736328125,34.00386428833008,90.64813232421875,34.01149368286133,90.47283935546875C34.01924514770508,90.29766845703125,34.03078079223633,90.12261962890625,34.04610061645508,89.94793701171875C34.06148147583008,89.77313232421875,34.08070755004883,89.59869384765625,34.10371780395508,89.42474365234375C34.12672805786133,89.25091552734375,34.15352249145508,89.07757568359375,34.18422317504883,88.90472412109375C34.21480178833008,88.73199462890625,34.24916458129883,88.56011962890625,34.28731155395508,88.38885498046875C34.32551956176758,88.21759033203125,34.36738967895508,88.04730224609375,34.41298294067383,87.87786865234375C34.45869827270508,87.70843505859375,34.50801467895508,87.54010009765625,34.56099319458008,87.37286376953125C34.61403274536133,87.20562744140625,34.67067337036133,87.03973388671875,34.73103713989258,86.87493896484375C34.79127883911133,86.71014404296875,34.85512161254883,86.54681396484375,34.92262649536133,86.38482666015625C34.99007034301758,86.22296142578125,35.06105422973633,86.06256103515625,35.13563919067383,85.90362548828125C35.21010208129883,85.74481201171875,35.28798294067383,85.58770751953125,35.36940383911133,85.43231201171875C35.45082473754883,85.27691650390625,35.53560256958008,85.12335205078125,35.62373733520508,84.97161865234375C35.71187210083008,84.81988525390625,35.80324172973633,84.67022705078125,35.89790725708008,84.52252197265625C35.99263381958008,84.37481689453125,36.09053421020508,84.22930908203125,36.19160842895508,84.08587646484375C36.29268264770508,83.94244384765625,36.39686965942383,83.80133056640625,36.50410842895508,83.66253662109375C36.61140823364258,83.52374267578125,36.72163772583008,83.38726806640625,36.83491897583008,83.25335693359375C36.94820022583008,83.11932373046875,37.06428909301758,82.98785400390625,37.18330764770508,82.85894775390625C37.30232620239258,82.73016357421875,37.42409133911133,82.60394287109375,37.54860305786133,82.48040771484375C37.67323684692383,82.35675048828125,37.80043411254883,82.23602294921875,37.93031692504883,82.11810302734375C38.06013870239258,82.00006103515625,38.19246292114258,81.88494873046875,38.32741165161133,81.77276611328125C38.46229934692383,81.66070556640625,38.59956741333008,81.55145263671875,38.73933792114258,81.44537353515625C38.87898635864258,81.33917236328125,39.02089309692383,81.23614501953125,39.16511917114258,81.13629150390625C39.30928421020508,81.03631591796875,39.45564651489258,80.93963623046875,39.60408401489258,80.84613037109375C39.75252151489258,80.75262451171875,39.90297317504883,80.66241455078125,40.05543899536133,80.57550048828125C40.20778274536133,80.48858642578125,40.36201858520508,80.40509033203125,40.51808547973633,80.32501220703125C40.67415237426758,80.24481201171875,40.83192825317383,80.16815185546875,40.99129104614258,80.09490966796875C41.15077590942383,80.02166748046875,41.31172561645508,79.95196533203125,41.47420120239258,79.88592529296875C41.63667678833008,79.81964111328125,41.80055618286133,79.75714111328125,41.96583938598633,79.69818115234375C42.13100051879883,79.63922119140625,42.29744338989258,79.58380126953125,42.46510696411133,79.53216552734375C42.63277053833008,79.48052978515625,42.80147171020508,79.43255615234375,42.97121047973633,79.38824462890625C43.14101028442383,79.34405517578125,43.31166458129883,79.30352783203125,43.48323440551758,79.26666259765625C43.65474319458008,79.22991943359375,43.82698440551758,79.19683837890625,44.00001907348633,79.16766357421875L44.00001907348633,72.99896240234375ZZZZZZ" fill-rule="evenodd" stroke="none" style="fill: rgb(238, 188, 165); fill-opacity: 1;"/></g></g><g id="shape-1e27c094-bdcd-80b5-8007-3320ba74d06f"><g class="fills" id="fills-1e27c094-bdcd-80b5-8007-3320ba74d06f"><path d="M44.00001907348633,106.99993896484375L44.00001907348633,115C44.00001907348633,115.916748046875,44.02254104614258,116.83282470703125,44.06752395629883,117.74810791015625C44.11244583129883,118.66339111328125,44.17982864379883,119.57708740234375,44.26961135864258,120.48907470703125C44.35945510864258,121.401123046875,44.47163772583008,122.310546875,44.60609817504883,123.2171630859375C44.74055862426758,124.123779296875,44.89723587036133,125.02655029296875,45.07600784301758,125.92523193359375C45.25484085083008,126.82391357421875,45.45552444458008,127.71783447265625,45.67824172973633,128.6072998046875C45.90089797973633,129.4959716796875,46.14522171020508,130.37890625,46.41133499145508,131.2562255859375C46.67732620239258,132.1329345703125,46.96474075317383,133.00262451171875,47.27351760864258,133.86529541015625C47.58223342895508,134.72869873046875,47.91200637817383,135.58367919921875,48.26271438598633,136.430419921875C48.61336135864258,137.277099609375,48.98463821411133,138.11474609375,49.37648391723633,138.943359375C49.76839065551758,139.7713623046875,50.18031692504883,140.58978271484375,50.61232376098633,141.39849853515625C51.04433059692383,142.20648193359375,51.49592971801758,143.00347900390625,51.96712112426758,143.78948974609375C52.43825149536133,144.5755615234375,52.92836380004883,145.3494873046875,53.43751907348633,146.111572265625C53.94673538208008,146.87353515625,54.47426223754883,147.622802734375,55.02022171020508,148.35955810546875C55.56612014770508,149.09564208984375,56.12984085083008,149.81756591796875,56.71120071411133,150.52557373046875C57.29262161254883,151.23431396484375,57.89107131958008,151.9283447265625,58.50648880004883,152.607666015625C59.12196731567383,153.286376953125,59.75374221801758,153.94970703125,60.40169143676758,154.59765625C61.04976272583008,155.24560546875,61.71333694458008,155.87774658203125,62.39241409301758,156.49371337890625C63.07143020629883,157.10906982421875,63.76515579223633,157.70733642578125,64.47359466552734,158.28875732421875C65.18209075927734,158.87005615234375,65.9043197631836,159.43365478515625,66.6404037475586,159.979736328125C67.37654876708984,160.5257568359375,68.1256332397461,161.0531005859375,68.8875961303711,161.561767578125C69.64962005615234,162.071044921875,70.42366790771484,162.5614013671875,71.20980072021484,163.03271484375C71.9958724975586,163.504150390625,72.7929916381836,163.95587158203125,73.6012191772461,164.38787841796875C74.40950775146484,164.81988525390625,75.22786712646484,165.23150634765625,76.0562973022461,165.62286376953125C76.8847885131836,166.01483154296875,77.72237396240234,166.38616943359375,78.5691146850586,166.73687744140625C79.4157943725586,167.08746337890625,80.27059173583984,167.41754150390625,81.13350677490234,167.7269287109375C81.9963607788086,168.0355224609375,82.86629486083984,168.3228759765625,83.7433090209961,168.5888671875C84.62032318115234,168.8548583984375,85.5033187866211,169.0992431640625,86.39229583740234,169.3218994140625C87.28133392333984,169.5445556640625,88.17525482177734,169.7452392578125,89.0741195678711,169.9239501953125C89.97298431396484,170.1025390625,90.87569427490234,170.25927734375,91.78218841552734,170.3939208984375C92.68880462646484,170.528564453125,93.59810638427734,170.6405029296875,94.51009368896484,170.7298583984375C95.42220306396484,170.8199462890625,96.33589935302734,170.8875732421875,97.25130462646484,170.932861328125C98.1666488647461,170.9775390625,99.0825424194336,170.9998779296875,99.99898529052734,170.9998779296875L100.0009994506836,170.9998779296875C100.91768646240234,170.9998779296875,101.83370208740234,170.9775390625,102.74898529052734,170.932861328125C103.6643295288086,170.8875732421875,104.5780258178711,170.8199462890625,105.4900131225586,170.7298583984375C106.4020004272461,170.6405029296875,107.31136322021484,170.528564453125,108.2180404663086,170.3939208984375C109.1246566772461,170.25927734375,110.0273666381836,170.1025390625,110.92598724365234,169.9239501953125C111.82466888427734,169.7452392578125,112.71871185302734,169.5445556640625,113.60799407958984,169.3218994140625C114.49666595458984,169.0992431640625,115.3796615600586,168.8548583984375,116.25704193115234,168.5888671875C117.1336898803711,168.3228759765625,118.0033187866211,168.0355224609375,118.8659896850586,167.7269287109375C119.72933197021484,167.41754150390625,120.5843734741211,167.08746337890625,121.43099212646484,166.73687744140625C122.27767181396484,166.38616943359375,123.1153793334961,166.01483154296875,123.9439926147461,165.62286376953125C124.7719955444336,165.23150634765625,125.5903549194336,164.81988525390625,126.39900970458984,164.38787841796875C127.20699310302734,163.95587158203125,128.0039825439453,163.504150390625,128.7899932861328,163.03271484375C129.5760040283203,162.5614013671875,130.34999084472656,162.071044921875,131.1120147705078,161.561767578125C131.8739776611328,161.0531005859375,132.6233673095703,160.5257568359375,133.36000061035156,159.979736328125C134.0960235595703,159.43365478515625,134.81800842285156,158.87005615234375,135.52601623535156,158.28875732421875C136.2346954345703,157.70733642578125,136.9286651611328,157.10906982421875,137.6079864501953,156.49371337890625C138.2866973876953,155.87774658203125,138.9500274658203,155.24560546875,139.59803771972656,154.59765625C140.24598693847656,153.94970703125,140.8780059814453,153.286376953125,141.49403381347656,152.607666015625C142.1093292236328,151.9283447265625,142.70765686035156,151.23431396484375,143.2890167236328,150.52557373046875C143.8703155517578,149.81756591796875,144.4340362548828,149.09564208984375,144.97999572753906,148.35955810546875C145.52601623535156,147.622802734375,146.05335998535156,146.87353515625,146.56202697753906,146.111572265625C147.0713653564453,145.3494873046875,147.56166076660156,144.5755615234375,148.0330352783203,143.78948974609375C148.5043487548828,143.00347900390625,148.9560089111328,142.20648193359375,149.3880157470703,141.39849853515625C149.8200225830078,140.58978271484375,150.23170471191406,139.7713623046875,150.6230010986328,138.943359375C151.01502990722656,138.11474609375,151.38636779785156,137.277099609375,151.7370147705078,136.430419921875C152.08766174316406,135.58367919921875,152.4176788330078,134.72869873046875,152.7270050048828,133.86529541015625C153.03565979003906,133.00262451171875,153.32301330566406,132.1329345703125,153.58900451660156,131.2562255859375C153.85499572753906,130.37890625,154.0993194580078,129.4959716796875,154.32203674316406,128.6072998046875C154.54469299316406,127.71783447265625,154.7453155517578,126.82391357421875,154.9240264892578,125.92523193359375C155.10267639160156,125.02655029296875,155.2593536376953,124.123779296875,155.3939971923828,123.2171630859375C155.52870178222656,122.310546875,155.6407012939453,121.401123046875,155.72999572753906,120.48907470703125C155.8200225830078,119.57708740234375,155.8876495361328,118.66339111328125,155.93299865722656,117.74810791015625C155.97767639160156,116.83282470703125,156.00001525878906,115.916748046875,156.00001525878906,115L156.00001525878906,106.99993896484375C156.00001525878906,107.91644287109375,155.97767639160156,108.83233642578125,155.93299865722656,109.7476806640625C155.8876495361328,110.6630859375,155.8200225830078,111.576904296875,155.72999572753906,112.48883056640625C155.6407012939453,113.4010009765625,155.52870178222656,114.3104248046875,155.3939971923828,115.217041015625C155.2593536376953,116.1236572265625,155.10267639160156,117.02642822265625,154.9240264892578,117.92510986328125C154.7453155517578,118.82379150390625,154.54469299316406,119.71771240234375,154.32203674316406,120.60711669921875C154.0993194580078,121.495849609375,153.85499572753906,122.3787841796875,153.58900451660156,123.256103515625C153.32301330566406,124.1328125,153.03565979003906,125.00250244140625,152.7270050048828,125.86517333984375C152.4176788330078,126.72857666015625,152.08766174316406,127.58355712890625,151.7370147705078,128.43023681640625C151.38636779785156,129.2769775390625,151.01502990722656,130.1146240234375,150.6230010986328,130.9432373046875C150.23170471191406,131.771240234375,149.8200225830078,132.58966064453125,149.3880157470703,133.39837646484375C148.9560089111328,134.20635986328125,148.5043487548828,135.00335693359375,148.0330352783203,135.78936767578125C147.56166076660156,136.575439453125,147.0713653564453,137.349365234375,146.56202697753906,138.1114501953125C146.05335998535156,138.8734130859375,145.52601623535156,139.6226806640625,144.97999572753906,140.35943603515625C144.4340362548828,141.09552001953125,143.8703155517578,141.81744384765625,143.2890167236328,142.52545166015625C142.70765686035156,143.23419189453125,142.1093292236328,143.92816162109375,141.49403381347656,144.6075439453125C140.8780059814453,145.2862548828125,140.24598693847656,145.9495849609375,139.59803771972656,146.5975341796875C138.9500274658203,147.2454833984375,138.2866973876953,147.8775634765625,137.6079864501953,148.49359130859375C136.9286651611328,149.10894775390625,136.2346954345703,149.70721435546875,135.52601623535156,150.28863525390625C134.81800842285156,150.86993408203125,134.0960235595703,151.43353271484375,133.36000061035156,151.9796142578125C132.6233673095703,152.525634765625,131.8739776611328,153.052978515625,131.1120147705078,153.5616455078125C130.34999084472656,154.0709228515625,129.5760040283203,154.561279296875,128.7899932861328,155.0325927734375C128.0039825439453,155.5040283203125,127.20699310302734,155.95574951171875,126.39900970458984,156.38775634765625C125.5903549194336,156.81976318359375,124.7719955444336,157.23138427734375,123.9439926147461,157.62274169921875C123.1153793334961,158.01470947265625,122.27767181396484,158.38604736328125,121.43099212646484,158.73675537109375C120.5843734741211,159.08734130859375,119.72933197021484,159.41741943359375,118.8659896850586,159.72674560546875C118.0033187866211,160.035400390625,117.1336898803711,160.32275390625,116.25704193115234,160.5887451171875C115.3796615600586,160.854736328125,114.49666595458984,161.09912109375,113.60799407958984,161.32177734375C112.71871185302734,161.54443359375,111.82466888427734,161.7451171875,110.92598724365234,161.923828125C110.0273666381836,162.1024169921875,109.1246566772461,162.2591552734375,108.2180404663086,162.393798828125C107.31136322021484,162.5284423828125,106.4020004272461,162.640380859375,105.4900131225586,162.729736328125C104.5780258178711,162.81982421875,103.6643295288086,162.887451171875,102.74898529052734,162.9327392578125C101.83370208740234,162.9774169921875,100.91768646240234,162.999755859375,100.0009994506836,162.999755859375L99.99898529052734,162.999755859375C99.0825424194336,162.999755859375,98.1666488647461,162.9774169921875,97.25130462646484,162.9327392578125C96.33589935302734,162.887451171875,95.42220306396484,162.81982421875,94.51009368896484,162.729736328125C93.59810638427734,162.640380859375,92.68880462646484,162.5284423828125,91.78218841552734,162.393798828125C90.87569427490234,162.2591552734375,89.97298431396484,162.1024169921875,89.0741195678711,161.923828125C88.17525482177734,161.7451171875,87.28133392333984,161.54443359375,86.39229583740234,161.32177734375C85.5033187866211,161.09912109375,84.62032318115234,160.854736328125,83.7433090209961,160.5887451171875C82.86629486083984,160.32275390625,81.9963607788086,160.035400390625,81.13350677490234,159.72674560546875C80.27059173583984,159.41741943359375,79.4157943725586,159.08734130859375,78.5691146850586,158.73675537109375C77.72237396240234,158.38604736328125,76.8847885131836,158.01470947265625,76.0562973022461,157.62274169921875C75.22786712646484,157.23138427734375,74.40950775146484,156.81976318359375,73.6012191772461,156.38775634765625C72.7929916381836,155.95574951171875,71.9958724975586,155.5040283203125,71.20980072021484,155.0325927734375C70.42366790771484,154.561279296875,69.64962005615234,154.0709228515625,68.8875961303711,153.5616455078125C68.1256332397461,153.052978515625,67.37654876708984,152.525634765625,66.6404037475586,151.9796142578125C65.9043197631836,151.43353271484375,65.18209075927734,150.86993408203125,64.47359466552734,150.28863525390625C63.76515579223633,149.70721435546875,63.07143020629883,149.10894775390625,62.39241409301758,148.49359130859375C61.71333694458008,147.8775634765625,61.04976272583008,147.2454833984375,60.40169143676758,146.5975341796875C59.75374221801758,145.9495849609375,59.12196731567383,145.2862548828125,58.50648880004883,144.6075439453125C57.89107131958008,143.92816162109375,57.29262161254883,143.23419189453125,56.71120071411133,142.52545166015625C56.12984085083008,141.81744384765625,55.56612014770508,141.09552001953125,55.02022171020508,140.35943603515625C54.47426223754883,139.6226806640625,53.94673538208008,138.8734130859375,53.43751907348633,138.1114501953125C52.92836380004883,137.349365234375,52.43819046020508,136.575439453125,51.96699905395508,135.78936767578125C51.49586868286133,135.00335693359375,51.04433059692383,134.20635986328125,50.61232376098633,133.39837646484375C50.18031692504883,132.58966064453125,49.76839065551758,131.771240234375,49.37648391723633,130.9432373046875C48.98463821411133,130.1146240234375,48.61336135864258,129.2769775390625,48.26271438598633,128.43023681640625C47.91200637817383,127.58355712890625,47.58223342895508,126.72857666015625,47.27351760864258,125.86517333984375C46.96474075317383,125.00250244140625,46.67732620239258,124.1328125,46.41133499145508,123.256103515625C46.14522171020508,122.3787841796875,45.90089797973633,121.495849609375,45.67824172973633,120.60711669921875C45.45552444458008,119.71771240234375,45.25484085083008,118.82379150390625,45.07600784301758,117.92510986328125C44.89723587036133,117.02642822265625,44.74055862426758,116.1236572265625,44.60609817504883,115.217041015625C44.47163772583008,114.3104248046875,44.35945510864258,113.4010009765625,44.26961135864258,112.48883056640625C44.17982864379883,111.576904296875,44.11244583129883,110.6630859375,44.06752395629883,109.7476806640625C44.02254104614258,108.83233642578125,44.00001907348633,107.91644287109375,44.00001907348633,106.99993896484375ZZZZZZ" fill-rule="evenodd" stroke="none" style="fill: rgb(0, 0, 0); fill-opacity: 0.101961;"/></g></g></g></g></g></g></g></g><g id="shape-1e27c094-bdcd-80b5-8007-3320cce14525"><defs><clipPath id="render-5-clip_6" transform="matrix(0.994463, 0.000000, 0.000000, 1.013093, 43.715909, 58.981325)"><use xlink:href="#render-5-artboard_6" clip-rule="evenodd"/></clipPath><rect width="112" height="24" id="render-5-artboard_6"/></defs><g class="frame-container-wrapper"><g class="frame-container-blur"><g class="frame-container-shadows"><g fill="none"><g class="fills" id="fills-1e27c094-bdcd-80b5-8007-3320cce14525"><rect width="88.99999999999977" height="15" class="frame-background" x="55.00008078440413" transform="matrix(1.000000, 0.000000, 0.000000, 1.000000, 0.000000, 0.000000)" ry="0" rx="0" y="64" clip-path="url(#-clip_6)"/></g><g class="frame-children"><g id="shape-1e27c094-bdcd-80b5-8007-3320cce14526"><g class="fills" id="fills-1e27c094-bdcd-80b5-8007-3320cce14526"><path d="M87.74776458740234,76.17059326171875C87.75167083740234,76.16278076171875,87.75167083740234,76.16278076171875,87.74776458740234,76.17059326171875ZZZZZM62.93666458129883,64.05145263671875C60.56898880004883,63.78533935546875,58.07948684692383,64.54852294921875,56.51045608520508,66.48504638671875C55.92036819458008,67.21307373046875,54.95686721801758,68.96502685546875,55.00160598754883,69.90155029296875C55.01826858520508,70.25799560546875,55.22639846801758,70.27752685546875,56.12526321411133,70.49188232421875C57.77077102661133,70.88397216796875,60.62520217895508,69.37811279296875,62.48006057739258,69.52020263671875C65.06197357177734,69.71795654296875,67.52657318115234,70.91571044921875,69.76277923583984,72.19891357421875C73.60128021240234,74.40155029296875,78.1169662475586,79.03973388671875,82.85579681396484,78.79705810546875C83.20870208740234,78.77899169921875,88.2759017944336,77.05828857421875,87.26680755615234,76.07489013671875C86.94979095458984,75.59051513671875,84.23250579833984,74.94647216796875,83.76497650146484,74.71307373046875C81.59310150146484,73.62908935546875,79.3979721069336,72.26531982421875,77.3224105834961,70.99481201171875C72.79427337646484,68.22332763671875,68.37776947021484,64.65692138671875,62.93666458129883,64.05145263671875ZZZZZ" fill-rule="evenodd" stroke="none" style="fill: rgb(43, 44, 47); fill-opacity: 1;"/></g></g><g id="shape-1e27c094-bdcd-80b5-8007-3320cce14527"><g class="fills" id="fills-1e27c094-bdcd-80b5-8007-3320cce14527"><path d="M111.68331146240234,76.17059326171875C111.67940521240234,76.16278076171875,111.67940521240234,76.16278076171875,111.68331146240234,76.17059326171875ZZZZZM136.5589141845703,64.05145263671875C138.9265899658203,63.78533935546875,141.4160919189453,64.54852294921875,142.9850616455078,66.48504638671875C143.5751495361328,67.21307373046875,144.53907775878906,68.96502685546875,144.4940948486328,69.90155029296875C144.47706604003906,70.25799560546875,144.26905822753906,70.27752685546875,143.37025451660156,70.49188232421875C141.72474670410156,70.88397216796875,138.87037658691406,69.37811279296875,137.0154571533203,69.52020263671875C134.43360900878906,69.71795654296875,131.96900939941406,70.91571044921875,129.73280334472656,72.19891357421875C125.8943099975586,74.40155029296875,121.3785629272461,79.03973388671875,116.6397933959961,78.79705810546875C116.2868881225586,78.77899169921875,111.21968841552734,77.05828857421875,112.2287826538086,76.07489013671875C112.5457992553711,75.59051513671875,115.2630844116211,74.94647216796875,115.7306137084961,74.71307373046875C117.9024887084961,73.62908935546875,120.09761810302734,72.26531982421875,122.17317962646484,70.99481201171875C126.7013168334961,68.22332763671875,131.1177520751953,64.65692138671875,136.5589141845703,64.05145263671875ZZZZZ" fill-rule="evenodd" stroke="none" style="fill: rgb(43, 44, 47); fill-opacity: 1;"/></g></g></g></g></g></g></g></g><g id="shape-1e27c094-bdcd-80b5-8007-3320d7c6edeb"><defs><clipPath id="render-8-clip_2" transform="matrix(20100.000000, 0.000000, 0.000000, 8900.000000, -87883409.304058, -26252234.253220)"><use xlink:href="#render-8-artboard_2" clip-rule="evenodd"/></clipPath><rect width="264" height="110" id="render-8-artboard_2"/></defs><g class="frame-container-wrapper"><g class="frame-container-blur"><g class="frame-container-shadows"><g fill="none"><g class="fills" id="fills-1e27c094-bdcd-80b5-8007-3320d7c6edeb"><rect width="201" height="89" class="frame-background" x="0.0000807844041332828" transform="matrix(1.000000, 0.000000, 0.000000, 1.000000, 0.000000, 0.000000)" ry="0" rx="0" y="172" clip-path="url(#-clip_2)"/></g><g class="frame-children"><g id="shape-1e27c094-bdcd-80b5-8007-3320d7c6edec"><g class="fills" id="fills-1e27c094-bdcd-80b5-8007-3320d7c6edec"><path d="M127.5156478881836,182.8455810546875C127.5156478881836,196.6527099609375,115.3785629272461,207.84564208984375,100.4060287475586,207.84564208984375C85.43355560302734,207.84564208984375,73.2964096069336,196.6527099609375,73.2964096069336,182.8455810546875C73.2964096069336,181.83038330078125,73.3617172241211,180.8292236328125,73.48921966552734,179.8455810546875L40.63747024536133,179.8455810546875C39.97243118286133,179.8455810546875,39.30781936645508,179.86187744140625,38.64351272583008,179.8944091796875C37.97926712036133,179.9268798828125,37.31624221801758,179.9755859375,36.65437698364258,180.04052734375C35.99251174926758,180.10546875,35.33259963989258,180.1865234375,34.67476272583008,180.28369140625C34.01692581176758,180.38092041015625,33.36183547973633,180.494140625,32.70949172973633,180.623291015625C32.05720901489258,180.75250244140625,31.408527374267578,180.8975830078125,30.763446807861328,181.05859375C30.118305206298828,181.21954345703125,29.477497100830078,181.3961181640625,28.841083526611328,181.58843994140625C28.204669952392578,181.78070068359375,27.573322296142578,181.9884033203125,26.947101593017578,182.21148681640625C26.321002960205078,182.43463134765625,25.700702667236328,182.6729736328125,25.086200714111328,182.926513671875C24.471790313720703,183.17999267578125,23.863971710205078,183.44830322265625,23.262744903564453,183.73150634765625C22.661579132080078,184.01470947265625,22.067707061767578,184.31243896484375,21.481128692626953,184.6246337890625C20.894641876220703,184.9368896484375,20.316150665283203,185.2633056640625,19.745716094970703,185.60382080078125C19.175281524658203,185.9443359375,18.613574981689453,186.298583984375,18.060596466064453,186.6666259765625C17.507648468017578,187.03460693359375,16.964038848876953,187.4158935546875,16.429798126220703,187.8104248046875C15.895649909973145,188.20501708984375,15.371541023254395,188.6124267578125,14.857441902160645,189.0325927734375C14.34331226348877,189.45281982421875,13.83983325958252,189.88531494140625,13.34703540802002,190.33013916015625C12.854329109191895,190.77496337890625,12.372822761535645,191.2315673828125,11.90251636505127,191.69989013671875C11.432209968566895,192.1683349609375,10.97374439239502,192.64788818359375,10.52715015411377,193.13873291015625C10.080525398254395,193.62945556640625,9.64629077911377,194.130859375,9.224385261535645,194.64288330078125C8.80247974395752,195.1549072265625,8.39342212677002,195.67694091796875,7.997211933135986,196.20892333984375C7.601002216339111,196.740966796875,7.218159198760986,197.28240966796875,6.848682880401611,197.8331298828125C6.479237079620361,198.38385009765625,6.123585224151611,198.94329833984375,5.781666278839111,199.51141357421875C5.439747333526611,200.07952880859375,5.112019062042236,200.65570068359375,4.798481464385986,201.23992919921875C4.484943866729736,201.82403564453125,4.185993671417236,202.41552734375,3.9016616344451904,203.0142822265625C3.6172988414764404,203.613037109375,3.3478896617889404,204.2183837890625,3.0933730602264404,204.83038330078125C2.8388869762420654,205.44232177734375,2.5996291637420654,206.06011962890625,2.3755996227264404,206.683837890625C2.1515395641326904,207.30743408203125,1.9430129528045654,207.9361572265625,1.7499587535858154,208.57000732421875C1.5568435192108154,209.203857421875,1.3795058727264404,209.84210205078125,1.2179152965545654,210.484619140625C1.0563247203826904,211.12713623046875,0.9106642603874207,211.773193359375,0.7809340357780457,212.42279052734375C0.6511427760124207,213.072509765625,0.5374953150749207,213.72491455078125,0.43996116518974304,214.380126953125C0.34236595034599304,215.03533935546875,0.26097556948661804,215.6925048828125,0.19575949013233185,216.3516845703125C0.13057394325733185,217.01092529296875,0.08168479055166245,217.6712646484375,0.04909201338887215,218.33282470703125C0.016407689079642296,218.994384765625,0.0000807844044174999,219.65643310546875,0.0000807844044174999,220.31878662109375L0.0000807844044174999,260.7939453125L200.81202697753906,260.7939453125L200.81202697753906,220.31878662109375C200.81202697753906,219.65643310546875,200.79566955566406,218.994384765625,200.76283264160156,218.33282470703125C200.73072814941406,217.6712646484375,200.6818389892578,217.01092529296875,200.6162872314453,216.3516845703125C200.5513458251953,215.6925048828125,200.46998596191406,215.03533935546875,200.3722686767578,214.380126953125C200.27455139160156,213.72491455078125,200.1607208251953,213.072509765625,200.03089904785156,212.42279052734375C199.90101623535156,211.773193359375,199.7554473876953,211.12713623046875,199.59413146972656,210.484619140625C199.4328155517578,209.84210205078125,199.2554473876953,209.203857421875,199.0619659423828,208.57000732421875C198.8692169189453,207.9361572265625,198.66065979003906,207.30743408203125,198.43641662597656,206.683837890625C198.21217346191406,206.06011962890625,197.97291564941406,205.44232177734375,197.71852111816406,204.83038330078125C197.4641876220703,204.2183837890625,197.1947784423828,203.613037109375,196.91029357910156,203.0142822265625C196.6258087158203,202.41552734375,196.32691955566406,201.82403564453125,196.0136260986328,201.23992919921875C195.7003936767578,200.65570068359375,195.37269592285156,200.07952880859375,195.03065490722656,199.51141357421875C194.68861389160156,198.94329833984375,194.3328399658203,198.38385009765625,193.9633331298828,197.8331298828125C193.59388732910156,197.28240966796875,193.21095275878906,196.740966796875,192.81471252441406,196.20892333984375C192.41847229003906,195.67694091796875,192.0094757080078,195.1549072265625,191.5877227783203,194.64288330078125C191.16603088378906,194.130859375,190.7316436767578,193.62945556640625,190.2845001220703,193.13873291015625C189.83802795410156,192.64788818359375,189.3798370361328,192.1683349609375,188.90992736816406,191.69989013671875C188.43934631347656,191.2315673828125,187.9577178955078,190.77496337890625,187.46510314941406,190.33013916015625C186.97242736816406,189.88531494140625,186.4690704345703,189.45281982421875,185.95497131347656,189.0325927734375C185.4408721923828,188.6124267578125,184.91676330566406,188.20501708984375,184.3826446533203,187.8104248046875C183.8484649658203,187.4158935546875,183.30494689941406,187.03460693359375,182.7520294189453,186.6666259765625C182.1984405517578,186.298583984375,181.63648986816406,185.9443359375,181.0662384033203,185.60382080078125C180.4959259033203,185.2633056640625,179.9175567626953,184.9368896484375,179.33119201660156,184.6246337890625C178.74415588378906,184.31243896484375,178.1501007080078,184.01470947265625,177.54896545410156,183.73150634765625C176.94789123535156,183.44830322265625,176.34010314941406,183.17999267578125,175.72560119628906,182.926513671875C175.1111602783203,182.6729736328125,174.49098205566406,182.43463134765625,173.8650665283203,182.21148681640625C173.23854064941406,181.9884033203125,172.60731506347656,181.78070068359375,171.97145080566406,181.58843994140625C171.33485412597656,181.3961181640625,170.6939239501953,181.21954345703125,170.0486602783203,181.05859375C169.4033966064453,180.8975830078125,168.75477600097656,180.75250244140625,168.10279846191406,180.623291015625C167.4501495361328,180.494140625,166.79481506347656,180.38092041015625,166.13685607910156,180.28369140625C165.47950744628906,180.1865234375,164.81983947753906,180.10546875,164.15785217285156,180.04052734375C163.4958038330078,179.9755859375,162.8328399658203,179.9268798828125,162.1687774658203,179.8944091796875C161.5041046142578,179.86187744140625,160.8394317626953,179.8455810546875,160.1747589111328,179.8455810546875L127.3228988647461,179.8455810546875C127.45040130615234,180.8292236328125,127.5156478881836,181.83038330078125,127.5156478881836,182.8455810546875ZZZZZZ" fill-rule="evenodd" stroke="none" style="fill: rgb(38, 46, 51); fill-opacity: 1;"/></g></g><g id="shape-1e27c094-bdcd-80b5-8007-3320d7c6eded" rx="0" ry="0" style="fill: rgb(0, 0, 0); fill-opacity: 1;"><g id="shape-1e27c094-bdcd-80b5-8007-3320d7c6edee"><g class="fills" id="fills-1e27c094-bdcd-80b5-8007-3320d7c6edee"><path d="M132.17250061035156,260.7939453125L200.81202697753906,260.7939453125L200.81202697753906,220.31878662109375C200.81202697753906,219.65643310546875,200.79566955566406,218.994384765625,200.76283264160156,218.33282470703125C200.7300567626953,217.6712646484375,200.68116760253906,217.01092529296875,200.6162872314453,216.3516845703125C200.5513458251953,215.6925048828125,200.46998596191406,215.03533935546875,200.3722686767578,214.380126953125C200.27455139160156,213.72491455078125,200.1607208251953,213.072509765625,200.03089904785156,212.42279052734375C199.90101623535156,211.773193359375,199.7554473876953,211.12713623046875,199.59413146972656,210.484619140625C199.4328155517578,209.84210205078125,199.2554473876953,209.203857421875,199.0619659423828,208.57000732421875C198.8692169189453,207.93621826171875,198.66065979003906,207.3074951171875,198.43641662597656,206.683837890625C198.21217346191406,206.06011962890625,197.97291564941406,205.44232177734375,197.71852111816406,204.83038330078125C197.4641876220703,204.2183837890625,197.1947784423828,203.613037109375,196.91029357910156,203.0142822265625C196.6258087158203,202.41552734375,196.32691955566406,201.82403564453125,196.0136260986328,201.23992919921875C195.7003936767578,200.65570068359375,195.37269592285156,200.07952880859375,195.03065490722656,199.51141357421875C194.68861389160156,198.94329833984375,194.3328399658203,198.38385009765625,193.9633331298828,197.8331298828125C193.59388732910156,197.28240966796875,193.21095275878906,196.740966796875,192.81471252441406,196.20892333984375C192.41847229003906,195.67694091796875,192.0094757080078,195.1549072265625,191.5877227783203,194.64288330078125C191.16603088378906,194.130859375,190.7316436767578,193.62945556640625,190.2845001220703,193.13873291015625C189.83802795410156,192.64788818359375,189.3798370361328,192.1683349609375,188.90992736816406,191.69989013671875C188.43934631347656,191.2315673828125,187.9577178955078,190.77496337890625,187.46510314941406,190.33013916015625C186.97242736816406,189.88531494140625,186.4690704345703,189.45281982421875,185.95497131347656,189.0325927734375C185.4408721923828,188.6124267578125,184.91676330566406,188.20501708984375,184.3826446533203,187.8104248046875C183.8484649658203,187.4158935546875,183.30494689941406,187.03460693359375,182.7520294189453,186.66656494140625C182.1984405517578,186.298583984375,181.63648986816406,185.9443359375,181.0662384033203,185.60382080078125C180.4959259033203,185.26324462890625,179.9175567626953,184.9368896484375,179.33119201660156,184.6246337890625C178.7448272705078,184.31243896484375,178.15077209472656,184.01470947265625,177.54896545410156,183.73150634765625C176.94789123535156,183.44830322265625,176.34010314941406,183.179931640625,175.72560119628906,182.92645263671875C175.1111602783203,182.6729736328125,174.49098205566406,182.4346923828125,173.8650665283203,182.2115478515625C173.23854064941406,181.9884033203125,172.60731506347656,181.78070068359375,171.97145080566406,181.58837890625C171.33485412597656,181.3961181640625,170.6939239501953,181.219482421875,170.0486602783203,181.05853271484375C169.4033966064453,180.89764404296875,168.75477600097656,180.7525634765625,168.10279846191406,180.623291015625C167.4501495361328,180.49407958984375,166.79481506347656,180.380859375,166.13685607910156,180.28369140625C165.47950744628906,180.1865234375,164.81983947753906,180.10546875,164.15785217285156,180.04052734375C163.4958038330078,179.9755859375,162.8328399658203,179.9268798828125,162.1687774658203,179.8944091796875C161.5041046142578,179.86187744140625,160.8394317626953,179.84564208984375,160.1747589111328,179.84564208984375L132.73377990722656,179.84564208984375C135.80213928222656,191.47064208984375,137.5562286376953,204.93792724609375,137.5562286376953,219.29388427734375C137.5562286376953,234.50262451171875,135.58729553222656,248.71392822265625,132.17250061035156,260.7939453125ZZZZZZM69.08272552490234,179.84564208984375C66.01399993896484,191.47064208984375,64.2599105834961,204.93792724609375,64.2599105834961,219.29388427734375C64.2599105834961,234.50262451171875,66.22859954833984,248.71392822265625,69.6433334350586,260.7939453125L0.0000807844044174999,260.7939453125L0.0000807844044174999,220.31878662109375C0.0000807844044174999,219.65643310546875,0.016407689079642296,218.994384765625,0.04903097823262215,218.33282470703125C0.08165427297353745,217.6712646484375,0.13057394325733185,217.01092529296875,0.19575949013233185,216.3516845703125C0.26094505190849304,215.6925048828125,0.34233543276786804,215.03533935546875,0.43993064761161804,214.380126953125C0.5374953150749207,213.72491455078125,0.6511732935905457,213.072509765625,0.7809035181999207,212.42279052734375C0.9106642603874207,211.773193359375,1.0563247203826904,211.12713623046875,1.2179458141326904,210.484619140625C1.3795363903045654,209.84210205078125,1.5568435192108154,209.203857421875,1.7499282360076904,208.57000732421875C1.9429824352264404,207.93621826171875,2.1515090465545654,207.3074951171875,2.3755691051483154,206.683837890625C2.5996291637420654,206.06011962890625,2.8389174938201904,205.44232177734375,3.0934035778045654,204.83038330078125C3.3479201793670654,204.2183837890625,3.6173598766326904,203.613037109375,3.9016921520233154,203.0142822265625C4.186054706573486,202.41552734375,4.485004901885986,201.82403564453125,4.798511981964111,201.23992919921875C5.112019062042236,200.65570068359375,5.439716815948486,200.07952880859375,5.781635761260986,199.51141357421875C6.123524188995361,198.94329833984375,6.479237079620361,198.38385009765625,6.848713397979736,197.8331298828125C7.218220233917236,197.28240966796875,7.601032733917236,196.740966796875,7.997211933135986,196.20892333984375C8.393391609191895,195.67694091796875,8.802449226379395,195.1549072265625,9.22435474395752,194.64288330078125C9.646260261535645,194.130859375,10.080525398254395,193.62945556640625,10.52715015411377,193.13873291015625C10.97380542755127,192.64788818359375,11.432271003723145,192.1683349609375,11.90251636505127,191.69989013671875C12.372822761535645,191.2315673828125,12.854329109191895,190.77496337890625,13.34703540802002,190.33013916015625C13.83983325958252,189.88531494140625,14.343281745910645,189.45281982421875,14.85735034942627,189.0325927734375C15.37151050567627,188.6124267578125,15.895649909973145,188.20501708984375,16.429798126220703,187.8104248046875C16.963977813720703,187.4158935546875,17.507556915283203,187.03460693359375,18.060596466064453,186.66656494140625C18.613574981689453,186.298583984375,19.175281524658203,185.9443359375,19.745716094970703,185.60382080078125C20.316150665283203,185.26324462890625,20.894641876220703,184.9368896484375,21.481128692626953,184.6246337890625C22.067707061767578,184.31243896484375,22.661579132080078,184.01470947265625,23.262744903564453,183.73150634765625C23.863971710205078,183.44830322265625,24.471790313720703,183.179931640625,25.086200714111328,182.92645263671875C25.700702667236328,182.6729736328125,26.321002960205078,182.4346923828125,26.947101593017578,182.2115478515625C27.573322296142578,181.9884033203125,28.204669952392578,181.78070068359375,28.841083526611328,181.58837890625C29.477497100830078,181.3961181640625,30.118305206298828,181.219482421875,30.763446807861328,181.05853271484375C31.408527374267578,180.89764404296875,32.05720901489258,180.7525634765625,32.70949172973633,180.623291015625C33.36183547973633,180.49407958984375,34.01692581176758,180.380859375,34.67476272583008,180.28369140625C35.33259963989258,180.1865234375,35.99251174926758,180.10546875,36.65437698364258,180.04052734375C37.31618118286133,179.9755859375,37.97920608520508,179.9268798828125,38.64351272583008,179.8944091796875C39.30781936645508,179.86187744140625,39.97243118286133,179.84564208984375,40.63747024536133,179.84564208984375L69.08272552490234,179.84564208984375ZZZZZZ" fill-rule="evenodd" stroke="none" style="fill: rgb(58, 76, 90); fill-opacity: 1;"/></g></g><g id="shape-1e27c094-bdcd-80b5-8007-3320d7c70b69"><g class="fills" id="fills-1e27c094-bdcd-80b5-8007-3320d7c70b69"><path d="M149.60499572753906,236.79388427734375L159.1997833251953,229.6265869140625C159.28749084472656,229.56134033203125,159.3775177001953,229.499755859375,159.46986389160156,229.44183349609375C159.56227111816406,229.38385009765625,159.65699768066406,229.32977294921875,159.75404357910156,229.279541015625C159.8504180908203,229.229248046875,159.9491729736328,229.1829833984375,160.0502471923828,229.14068603515625C160.15065002441406,229.0985107421875,160.25270080566406,229.0604248046875,160.35646057128906,229.0264892578125C160.46022033691406,228.9925537109375,160.56532287597656,228.962890625,160.67176818847656,228.93743896484375C160.77748107910156,228.9119873046875,160.88429260253906,228.8909912109375,160.9920196533203,228.87432861328125C161.0998077392578,228.85760498046875,161.20826721191406,228.84527587890625,161.3173370361328,228.83734130859375C161.4264678955078,228.8294677734375,161.5355987548828,228.82598876953125,161.64466857910156,228.826904296875C161.75379943847656,228.82781982421875,161.8628692626953,228.83319091796875,161.9720001220703,228.843017578125C162.08045959472656,228.8529052734375,162.1885528564453,228.86712646484375,162.2963409423828,228.8857421875C162.4033966064453,228.90423583984375,162.5098419189453,228.9271240234375,162.61561584472656,228.95440673828125C162.7213897705078,228.981689453125,162.8257598876953,229.01318359375,162.92884826660156,229.04888916015625C163.0319366455078,229.08465576171875,163.1333770751953,229.12451171875,163.2331085205078,229.16851806640625C163.33351135253906,229.2125244140625,163.4315948486328,229.260498046875,163.5272979736328,229.31243896484375C163.6230010986328,229.36431884765625,163.7167510986328,229.42010498046875,163.8084259033203,229.479736328125C163.8994903564453,229.53924560546875,163.98817443847656,229.60235595703125,164.07447814941406,229.66912841796875L170.6902618408203,234.79388427734375L149.60499572753906,236.79388427734375ZZZZZZ" fill-rule="evenodd" stroke="none" style="fill: rgb(230, 230, 230); fill-opacity: 1;"/></g></g><g id="shape-1e27c094-bdcd-80b5-8007-3320d7c70b6a"><g class="fills" id="fills-1e27c094-bdcd-80b5-8007-3320d7c70b6a"><path d="M131.53187561035156,178.79388427734375C137.5562286376953,207.79388427734375,126.5116195678711,260.7939453125,126.5116195678711,260.7939453125L142.57655334472656,260.7939453125L156.63343811035156,224.79388427734375L150.6090850830078,215.79388427734375L156.63343811035156,209.79388427734375L137.5562286376953,179.79388427734375C137.5562286376953,179.79388427734375,134.5028839111328,178.8477783203125,131.53187561035156,178.79388427734375ZZZZZZ" fill-rule="evenodd" stroke="none" style="fill: rgb(47, 67, 81); fill-opacity: 1;"/></g></g><g id="shape-1e27c094-bdcd-80b5-8007-3320d7c70b6b"><g class="fills" id="fills-1e27c094-bdcd-80b5-8007-3320d7c70b6b"><path d="M69.2801742553711,178.79388427734375C63.25587844848633,207.79388427734375,74.30049896240234,260.7939453125,74.30049896240234,260.7939453125L58.23555374145508,260.7939453125L44.17866897583008,224.79388427734375L50.20308303833008,215.79388427734375L44.17866897583008,209.79388427734375L63.25587844848633,179.79388427734375C63.25587844848633,179.79388427734375,66.3097152709961,178.8477783203125,69.2801742553711,178.79388427734375ZZZZZZ" fill-rule="evenodd" stroke="none" style="fill: rgb(47, 67, 81); fill-opacity: 1;"/></g></g></g><g id="shape-1e27c094-bdcd-80b5-8007-3320d7c70b6c"><g class="fills" id="fills-1e27c094-bdcd-80b5-8007-3320d7c70b6c"><path d="M75.80660247802734,172.67901611328125C69.3005599975586,177.2542724609375,65.26399993896484,183.6298828125,65.26399993896484,190.68182373046875C65.26399993896484,198.08270263671875,69.70992279052734,204.73870849609375,76.7905502319336,209.35040283203125L82.75569915771484,204.67041015625L87.3532943725586,205.0018310546875L86.3492660522461,201.8507080078125L86.3492660522461,201.8507080078125C80.3027572631836,198.64703369140625,76.3086166381836,193.49432373046875,76.3086166381836,187.67071533203125C76.3086166381836,187.44671630859375,76.31453704833984,187.2237548828125,76.32625579833984,187.0018310546875C75.80660247802734,183.27716064453125,75.80660247802734,179.79388427734375,75.80660247802734,179.79388427734375L75.80660247802734,172.67901611328125M124.37911224365234,185.898681640625C124.46138763427734,186.4813232421875,124.50350189208984,187.072509765625,124.50350189208984,187.67071533203125C124.50350189208984,193.49432373046875,120.50936126708984,198.64703369140625,114.3845443725586,201.7894287109375L114.4629135131836,201.8507080078125L113.45882415771484,205.0018310546875L118.0564193725586,204.67041015625L124.0215072631836,209.35040283203125C131.1021270751953,204.73870849609375,135.54811096191406,198.08270263671875,135.54811096191406,190.68182373046875C135.54811096191406,183.27386474609375,131.0937042236328,176.61224365234375,124.00142669677734,172L124.00142669677734,179.79388427734375C124.00142669677734,179.79388427734375,124.5034408569336,182.5576171875,124.4408187866211,185.9176025390625M118.4791488647461,204.6400146484375L118.0564193725586,204.67041015625L114.4629135131836,201.8507080078125L118.4791488647461,204.6400146484375" style="fill: rgb(242, 242, 242); fill-opacity: 1;"/></g></g></g></g></g></g></g></g><g id="shape-1e27c094-bdcd-80b5-8007-3320e8391139"><defs><clipPath id="render-16-clip_7" transform="matrix(1.000000, 0.000000, 0.000000, 1.000000, 46.500080, 70.999999)"><use xlink:href="#render-16-artboard_7" clip-rule="evenodd"/></clipPath><rect width="112" height="44" id="render-16-artboard_7"/></defs><g class="frame-container-wrapper"><g class="frame-container-blur"><g class="frame-container-shadows"><g fill="none"><g class="fills" id="fills-1e27c094-bdcd-80b5-8007-3320e8391139"><rect width="80" height="28" class="frame-background" x="59.00008078440413" transform="matrix(1.000000, 0.000000, 0.000000, 1.000000, 0.000000, 0.000000)" ry="0" rx="0" y="79" clip-path="url(#-clip_7)"/></g><g class="frame-children"><g id="shape-1e27c094-bdcd-80b5-8007-3320e839113a"><g class="fills" id="fills-1e27c094-bdcd-80b5-8007-3320e839113a"><path d="M73.00008392333984,106.99981689453125C80.7320785522461,106.99981689453125,87.00008392333984,100.73175048828125,87.00008392333984,92.99981689453125C87.00008392333984,85.26788330078125,80.7320785522461,78.99981689453125,73.00008392333984,78.99981689453125C65.2680892944336,78.99981689453125,59.00008010864258,85.26788330078125,59.00008010864258,92.99981689453125C59.00008010864258,100.73175048828125,65.2680892944336,106.99981689453125,73.00008392333984,106.99981689453125ZZZZZZ" fill-rule="evenodd" stroke="none" style="fill: rgb(255, 255, 255); fill-opacity: 1;"/></g></g><g id="shape-1e27c094-bdcd-80b5-8007-3320e839113b"><g class="fills" id="fills-1e27c094-bdcd-80b5-8007-3320e839113b"><path d="M125.00008392333984,106.99981689453125C132.73207092285156,106.99981689453125,139.0000762939453,100.73175048828125,139.0000762939453,92.99981689453125C139.0000762939453,85.26788330078125,132.73207092285156,78.99981689453125,125.00008392333984,78.99981689453125C117.2680892944336,78.99981689453125,111.00008392333984,85.26788330078125,111.00008392333984,92.99981689453125C111.00008392333984,100.73175048828125,117.2680892944336,106.99981689453125,125.00008392333984,106.99981689453125ZZZZZZ" fill-rule="evenodd" stroke="none" style="fill: rgb(255, 255, 255); fill-opacity: 1;"/></g></g><g id="shape-1e27c094-bdcd-80b5-8007-3320e839113c"><g class="fills" id="fills-1e27c094-bdcd-80b5-8007-3320e839113c"><path d="M73.00008392333984,98.99981689453125C76.31380462646484,98.99981689453125,79.00008392333984,96.31378173828125,79.00008392333984,92.99981689453125C79.00008392333984,89.68634033203125,76.31380462646484,86.99981689453125,73.00008392333984,86.99981689453125C69.68636322021484,86.99981689453125,67.00008392333984,89.68634033203125,67.00008392333984,92.99981689453125C67.00008392333984,96.31378173828125,69.68636322021484,98.99981689453125,73.00008392333984,98.99981689453125ZZZZZZ" fill-rule="evenodd" stroke="none" style="fill: rgb(0, 0, 0); fill-opacity: 0.698039;"/></g></g><g id="shape-1e27c094-bdcd-80b5-8007-3320e839113d"><g class="fills" id="fills-1e27c094-bdcd-80b5-8007-3320e839113d"><path d="M125.00008392333984,98.99981689453125C128.3137969970703,98.99981689453125,131.0000762939453,96.31378173828125,131.0000762939453,92.99981689453125C131.0000762939453,89.68634033203125,128.3137969970703,86.99981689453125,125.00008392333984,86.99981689453125C121.68636322021484,86.99981689453125,119.00008392333984,89.68634033203125,119.00008392333984,92.99981689453125C119.00008392333984,96.31378173828125,121.68636322021484,98.99981689453125,125.00008392333984,98.99981689453125ZZZZZZ" fill-rule="evenodd" stroke="none" style="fill: rgb(0, 0, 0); fill-opacity: 0.698039;"/></g></g></g></g></g></g></g></g><g id="shape-1e27c094-bdcd-80b5-8007-332118f53230"><defs><clipPath id="render-21-clip_9" transform="matrix(1.091720, 0.000000, 0.000000, 0.633333, 47.665430, 128.733343)"><use xlink:href="#render-21-artboard_9" clip-rule="evenodd"/></clipPath><rect width="108" height="44" id="render-21-artboard_9"/></defs><g class="frame-container-wrapper"><g class="frame-container-blur"><g class="frame-container-shadows"><g fill="none"><g class="fills" id="fills-1e27c094-bdcd-80b5-8007-332118f53230"><rect width="38.000001000441216" height="18.99999802146931" class="frame-background" x="80.00008128462474" transform="matrix(1.000000, 0.000000, 0.000000, 1.000000, 0.000000, 0.000000)" ry="0" rx="0" y="130.00000098926535" clip-path="url(#-clip_9)"/></g><g class="frame-children"><g id="shape-1e27c094-bdcd-80b5-8007-332118f53231"><g class="fills" id="fills-1e27c094-bdcd-80b5-8007-332118f53231"><path d="M80.0078353881836,132.128173828125C81.06575775146484,141.619873046875,89.11605072021484,149,98.8900375366211,149C108.6942367553711,149,116.7640609741211,141.57421875,117.78182220458984,132.0400390625C117.86373138427734,131.272705078125,117.0067367553711,130,115.93282318115234,130C101.0388412475586,130,89.6279525756836,130,81.9768295288086,130C80.8966293334961,130,79.90206146240234,131.178466796875,80.0078353881836,132.128173828125ZZZZZZ" fill-rule="evenodd" stroke="none" style="fill: rgb(0, 0, 0); fill-opacity: 0.698039;"/></g></g><g id="shape-1e27c094-bdcd-80b5-8007-332118f53232"><g class="fills" id="fills-1e27c094-bdcd-80b5-8007-332118f53232"><path d="M114.8900375366211,130C101.7409896850586,130,91.37252044677734,130,83.9814682006836,130C83.9509506225586,130,83.9204330444336,130,83.8900375366211,130C83.8900375366211,130.00128173828125,83.8900375366211,130.0015869140625,83.8900375366211,130.001953125C83.8900375366211,130.0833740234375,83.89205169677734,130.16485595703125,83.8960189819336,130.246337890625C83.9000473022461,130.328125,83.90608978271484,130.40966796875,83.91414642333984,130.490966796875C83.9221420288086,130.572509765625,83.9321517944336,130.653564453125,83.9441146850586,130.734619140625C83.95613861083984,130.8154296875,83.9701156616211,130.89599609375,83.9861068725586,130.976318359375C84.00203704833984,131.056396484375,84.01998138427734,131.13623046875,84.0398178100586,131.2158203125C84.0597152709961,131.295166015625,84.08150482177734,131.373779296875,84.10530853271484,131.4521484375C84.1290512084961,131.530517578125,84.1546859741211,131.608154296875,84.18221282958984,131.68505859375C84.20980072021484,131.76220703125,84.2392807006836,131.83837890625,84.2705307006836,131.9140625C84.30184173583984,131.989501953125,84.3349838256836,132.064453125,84.36995697021484,132.138427734375C84.4049301147461,132.21240234375,84.44173431396484,132.285400390625,84.48030853271484,132.357421875C84.51888275146484,132.4296875,84.55916595458984,132.500732421875,84.6012191772461,132.571044921875C84.64327239990234,132.64111328125,84.6870346069336,132.710205078125,84.73250579833984,132.7783203125C84.7779769897461,132.846435546875,84.8250961303711,132.9130859375,84.8738021850586,132.97900390625C84.92256927490234,133.044677734375,84.97286224365234,133.109130859375,85.02474212646484,133.17236328125C85.0766830444336,133.235595703125,85.13008880615234,133.297607421875,85.18502044677734,133.358154296875C85.23995208740234,133.418701171875,85.29634857177734,133.47802734375,85.35420989990234,133.535888671875C85.4120101928711,133.59375,85.47127532958984,133.650146484375,85.53194427490234,133.705078125C85.5925521850586,133.760009765625,85.6544418334961,133.8134765625,85.71773529052734,133.865234375C85.7809066772461,133.917236328125,85.84542083740234,133.967529296875,85.9111557006836,134.01611328125C85.97689056396484,134.06494140625,86.0437240600586,134.112060546875,86.1117172241211,134.157470703125C86.1797103881836,134.202880859375,86.2488021850586,134.246826171875,86.31905364990234,134.288818359375C86.38924407958984,134.330810546875,86.46041107177734,134.37109375,86.53255462646484,134.40966796875C86.6046371459961,134.4482421875,86.67769622802734,134.485107421875,86.7516098022461,134.52001953125C86.82564544677734,134.554931640625,86.9004135131836,134.588134765625,86.97603607177734,134.61962890625C87.0515365600586,134.65087890625,87.12789154052734,134.68017578125,87.20491790771484,134.707763671875C87.28194427490234,134.7353515625,87.35958099365234,134.760986328125,87.43795013427734,134.78466796875C87.51619720458984,134.80859375,87.5949935913086,134.830322265625,87.6743392944336,134.85009765625C87.75374603271484,134.8701171875,87.8335189819336,134.887939453125,87.9137191772461,134.90380859375C87.99398040771484,134.919921875,88.0746078491211,134.933837890625,88.1555404663086,134.94580078125C88.2364730834961,134.9580078125,88.3176498413086,134.968017578125,88.39900970458984,134.975830078125C88.48043060302734,134.98388671875,88.56197357177734,134.989990234375,88.64376068115234,134.993896484375C88.7254867553711,134.998046875,88.80721282958984,135,88.8890609741211,135L109.8910140991211,135C109.97286224365234,135,110.0545883178711,134.998046875,110.13631439208984,134.993896484375C110.2180404663086,134.989990234375,110.29964447021484,134.98388671875,110.3810043334961,134.975830078125C110.4624252319336,134.968017578125,110.5436019897461,134.9580078125,110.6245346069336,134.94580078125C110.7054672241211,134.933837890625,110.7860336303711,134.919921875,110.8662338256836,134.90380859375C110.94649505615234,134.887939453125,111.02632904052734,134.8701171875,111.1057357788086,134.85009765625C111.1850814819336,134.830322265625,111.26387786865234,134.80859375,111.34212493896484,134.78466796875C111.42049407958984,134.760986328125,111.49813079833984,134.7353515625,111.57515716552734,134.707763671875C111.65218353271484,134.68017578125,111.72847747802734,134.65087890625,111.80403900146484,134.61962890625C111.8796615600586,134.588134765625,111.95442962646484,134.554931640625,112.02840423583984,134.52001953125C112.10237884521484,134.485107421875,112.17537689208984,134.4482421875,112.24752044677734,134.40966796875C112.31966400146484,134.37109375,112.39083099365234,134.330810546875,112.46102142333984,134.288818359375C112.53121185302734,134.246826171875,112.60030364990234,134.202880859375,112.6683578491211,134.157470703125C112.7363510131836,134.112060546875,112.80318450927734,134.06494140625,112.8689193725586,134.01611328125C112.93465423583984,133.967529296875,112.99910736083984,133.917236328125,113.06233978271484,133.865234375C113.12557220458984,133.8134765625,113.1875228881836,133.760009765625,113.24813079833984,133.705078125C113.3087387084961,133.650146484375,113.3679428100586,133.59375,113.4258041381836,133.535888671875C113.48372650146484,133.47802734375,113.54012298583984,133.418701171875,113.59505462646484,133.358154296875C113.64998626708984,133.297607421875,113.7033920288086,133.235595703125,113.75533294677734,133.17236328125C113.80721282958984,133.109130859375,113.85750579833984,133.044677734375,113.90621185302734,132.97900390625C113.9549789428711,132.9130859375,114.00203704833984,132.846435546875,114.0475082397461,132.7783203125C114.09297943115234,132.710205078125,114.1367416381836,132.64111328125,114.1788558959961,132.571044921875C114.22090911865234,132.500732421875,114.26119232177734,132.4296875,114.2997055053711,132.357421875C114.33834075927734,132.285400390625,114.37508392333984,132.21240234375,114.4100570678711,132.138427734375C114.44503021240234,132.064453125,114.4781723022461,131.989501953125,114.5095443725586,131.9140625C114.5407943725586,131.83837890625,114.5702133178711,131.76220703125,114.59786224365234,131.68505859375C114.6253890991211,131.608154296875,114.6510238647461,131.530517578125,114.6747055053711,131.4521484375C114.6985092163086,131.373779296875,114.7203598022461,131.295166015625,114.7402572631836,131.2158203125C114.76009368896484,131.13623046875,114.7779769897461,131.056396484375,114.79390716552734,130.976318359375C114.8099594116211,130.89599609375,114.82393646240234,130.8154296875,114.8359603881836,130.734619140625C114.8479232788086,130.653564453125,114.8579330444336,130.572509765625,114.86592864990234,130.490966796875C114.87398529052734,130.40966796875,114.8800277709961,130.328125,114.8840560913086,130.246337890625C114.88802337646484,130.16455078125,114.8900375366211,130.082763671875,114.8900375366211,130.0009765625L114.8900375366211,130" style="fill: rgb(255, 255, 255); fill-opacity: 1;"/></g></g><g id="shape-1e27c094-bdcd-80b5-8007-332118f53235"><g class="fills" id="fills-1e27c094-bdcd-80b5-8007-332118f53235"><path d="M104.22286224365234,148.2186279296875C102.68087005615234,144.0062255859375,98.6364974975586,141,93.8900375366211,141C90.89986419677734,141,88.18831634521484,142.193115234375,86.2055892944336,144.12921142578125C88.2431869506836,145.9859619140625,90.7428207397461,147.4111328125,93.5041732788086,148.225830078125C95.2116928100586,148.7296142578125,97.0193099975586,149,98.8900375366211,149C100.7140121459961,149,102.4779281616211,148.74298095703125,104.14754486083984,148.26324462890625C106.9303207397461,147.463623046875,109.45125579833984,146.045166015625,111.5517807006836,144.16644287109375C109.5916976928711,142.193115234375,106.88021087646484,141,103.8900375366211,141C99.11983489990234,141,95.0588607788086,144.03631591796875,93.5343246459961,148.28179931640625" style="fill: rgb(255, 79, 109); fill-opacity: 1;"/></g></g></g></g></g></g></g></g><g id="shape-1e27c094-bdcd-80b5-8007-3321242ac555"><defs><clipPath id="render-25-clip_10" transform="matrix(1.000000, 0.000000, 0.000000, 1.000000, 73.000079, 104.999999)"><use xlink:href="#render-25-artboard_10" clip-rule="evenodd"/></clipPath><rect width="56" height="24" id="render-25-artboard_10"/></defs><g class="frame-container-wrapper"><g class="frame-container-blur"><g class="frame-container-shadows"><g fill="none"><g class="fills" id="fills-1e27c094-bdcd-80b5-8007-3321242ac555"><rect width="24" height="8.000000162242031" class="frame-background" x="86.00008078440413" transform="matrix(1.000000, 0.000000, -0.000000, 1.000000, 0.000001, 0.000007)" ry="0" rx="0" y="112.99999950000029" clip-path="url(#-clip_10)"/></g><g class="frame-children"><g id="shape-1e27c094-bdcd-80b5-8007-3321242ac556"><g class="fills" id="fills-1e27c094-bdcd-80b5-8007-3321242ac556"><path d="M86.00008392333984,113C86.00008392333984,117.418212890625,91.3727035522461,121,98.00008392333984,121L98.00008392333984,121C104.6274642944336,121,110.00008392333984,117.418212890625,110.00008392333984,113" fill-rule="evenodd" stroke="none" style="fill: rgb(0, 0, 0); fill-opacity: 0.160784;"/></g></g></g></g></g></g></g></g><g id="shape-1e27c094-bdcd-80b5-8007-3321b437ab44"><defs><clipPath id="render-27-clip_12" transform="matrix(3988.283600, 0.000000, 0.000000, 3501.424800, -12012454.949840, -14900937.231009)"><use xlink:href="#render-27-artboard_12" clip-rule="evenodd"/></clipPath><rect width="266" height="280" id="render-27-artboard_12"/></defs><g class="frame-container-wrapper"><g class="frame-container-blur"><g class="frame-container-shadows"><g fill="none"><g class="fills" id="fills-1e27c094-bdcd-80b5-8007-3321b437ab44"><rect width="39.88283600000091" height="35.01424799999984" class="frame-background" x="79.58798340655738" transform="matrix(2.935063, 0.000000, -0.000000, 2.320856, -192.595668, -53.668376)" ry="0" rx="0" y="23.124388555302176" clip-path="url(#-clip_12)"/></g><g class="frame-children"><g id="shape-1e27c094-bdcd-80b5-8007-3321b437ab45"><g class="fills" id="fills-1e27c094-bdcd-80b5-8007-3321b437ab45"><path d="M155.7090606689453,37.1240234375C156.60108947753906,40.37109375,157.87208557128906,49.07427978515625,155.63710021972656,51.95660400390625C154.8910675048828,52.91900634765625,149.7960968017578,50.21783447265625,147.6710968017578,49.04400634765625C146.4280548095703,48.357421875,145.2560577392578,47.70361328125,144.13905334472656,47.0810546875C129.2240753173828,38.7646484375,124.40413665771484,36.0771484375,98.24605560302734,36.4580078125C70.13008880615234,36.8671875,50.86763381958008,50.04010009765625,49.78413772583008,51.38726806640625C49.03035354614258,52.32476806640625,48.06795120239258,54.82818603515625,47.27656936645508,61.80035400390625C47.02595901489258,64.00787353515625,46.95601272583008,66.76959228515625,46.88655471801758,69.51275634765625C46.73640823364258,75.43560791015625,46.58845901489258,81.27301025390625,44.63057327270508,81.26324462890625C42.19160842895508,81.25006103515625,41.66096878051758,57.47711181640625,42.71382522583008,48.04638671875C42.75325393676758,47.69384765625,42.82002639770508,47.27294921875,42.89192581176758,46.8203125C43.11531448364258,45.4130859375,43.38862991333008,43.69091796875,43.04756546020508,42.7060546875C42.89375686645508,42.26220703125,42.50691604614258,41.9921875,42.11030960083008,41.71484375C41.48982620239258,41.28125,40.84553909301758,40.83154296875,41.03316116333008,39.67529296875C41.24483108520508,38.36962890625,42.12471389770508,38.24609375,42.99666213989258,38.1240234375C43.56599807739258,38.0439453125,44.13179397583008,37.96484375,44.50606155395508,37.5576171875C45.63423538208008,36.32861328125,44.95918655395508,35.689453125,44.18819046020508,34.9599609375C43.73274612426758,34.52880859375,43.24373245239258,34.0654296875,43.07307815551758,33.4306640625C42.43904495239258,31.0693359375,44.09675979614258,30.3359375,45.75996780395508,29.60009765625C45.88692092895508,29.5439453125,46.01375198364258,29.48779296875,46.13972854614258,29.43115234375C48.10615921020508,28.5439453125,47.85066604614258,29.3232421875,49.44649124145508,27.5849609375C47.31489944458008,26.0224609375,46.54365921020508,23.894073486328125,49.46248245239258,22.751983642578125C50.02144241333008,22.533233642578125,50.98396682739258,22.543487548828125,51.96162796020508,22.554229736328125C53.15205764770508,22.567413330078125,54.36494827270508,22.580108642578125,54.89815139770508,22.180206298828125C55.15144729614258,21.990264892578125,55.25166702270508,20.900909423828125,55.40755081176758,20.678253173828125C56.75764846801758,18.746612548828125,56.64253616333008,17.279327392578125,56.48628616333008,15.288604736328125C56.46297073364258,14.992706298828125,56.43892288208008,14.685089111328125,56.41853713989258,14.362335205078125C56.28914260864258,12.324249267578125,56.30647659301758,10.453155517578125,58.74678421020508,10.249542236328125C59.75166702270508,10.166046142578125,60.64058303833008,10.640167236328125,61.51704788208008,11.107940673828125C62.06074905395508,11.398468017578125,62.59968948364258,11.686065673828125,63.15828323364258,11.835968017578125C64.03304290771484,12.070831298828125,64.25753021240234,12.271514892578125,64.47920989990234,12.268585205078125C64.66768646240234,12.266143798828125,64.85420989990234,12.116241455078125,65.43697357177734,11.714874267578125C67.66316986083984,10.181671142578125,66.14815521240234,7.194366455078125,67.91341400146484,5.412139892578125C69.48909759521484,3.821319580078125,70.71114349365234,4.781280517578125,71.90914154052734,5.721710205078125C72.55208587646484,6.227569580078125,73.18917083740234,6.727081298828125,73.86910247802734,6.821807861328125C76.41512298583984,7.176300048828125,76.93306732177734,5.758819580078125,77.49117279052734,4.232452392578125C77.85811614990234,3.227081298828125,78.24312591552734,2.174346923828125,79.23616790771484,1.550323486328125C81.06514739990234,0.401397705078125,81.88314056396484,1.503448486328125,82.67012786865234,2.563995361328125C83.16915130615234,3.235870361328125,83.65511322021484,3.891143798828125,84.37911224365234,3.948272705078125C85.38314056396484,4.026885986328125,86.88509368896484,2.854522705078125,88.21810150146484,1.814971923828125C89.03206634521484,1.179718017578125,89.78316497802734,0.593780517578125,90.31710052490234,0.373077392578125C92.58614349365234,-0.562957763671875,94.23409271240234,0.437530517578125,95.90206146240234,1.450225830078125C97.31014251708984,2.304718017578125,98.73213958740234,3.167999267578125,100.55416107177734,2.884307861328125C100.85213470458984,2.837921142578125,101.12715911865234,2.792510986328125,101.38509368896484,2.750030517578125C103.62313079833984,2.380401611328125,104.49214935302734,2.237335205078125,106.83113861083984,3.711456298828125C108.52108001708984,4.776885986328125,109.35115814208984,4.622100830078125,110.56905364990234,4.395050048828125C111.17513275146484,4.282257080078125,111.87715911865234,4.151397705078125,112.82906341552734,4.143585205078125C113.94014739990234,4.135284423828125,114.81514739990234,4.640655517578125,115.65816497802734,5.127960205078125C116.35115814208984,5.528839111328125,117.02315521240234,5.917022705078125,117.78816986083984,5.996612548828125C118.21114349365234,6.041046142578125,118.62508392333984,5.842315673828125,119.04708099365234,5.639678955078125C119.46712493896484,5.438018798828125,119.89510345458984,5.232940673828125,120.34810638427734,5.260284423828125C123.58516693115234,5.456573486328125,123.79012298583984,9.643096923828125,126.36214447021484,10.795440673828125C127.98116302490234,11.521514892578125,129.7980499267578,11.043975830078125,131.5331573486328,10.587432861328125C132.3161163330078,10.381866455078125,133.0821075439453,10.180206298828125,133.8070831298828,10.095245361328125C137.7660675048828,9.630401611328125,137.0840606689453,12.063018798828125,136.3561553955078,14.654327392578125C136.0381622314453,15.787139892578125,135.7121124267578,16.950225830078125,135.7610626220703,17.914581298828125C136.9091339111328,18.182647705078125,138.06605529785156,17.762237548828125,139.22108459472656,17.341827392578125C140.31410217285156,16.944854736328125,141.40406799316406,16.548370361328125,142.4850616455078,16.734893798828125C145.88307189941406,17.321319580078125,144.7390899658203,20.756378173828125,143.9270782470703,23.194854736328125C143.9020538330078,23.269073486328125,143.87709045410156,23.342315673828125,143.8531036376953,23.414581298828125C144.48805236816406,23.402862548828125,145.3910675048828,23.209991455078125,146.40504455566406,22.993194580078125C149.26808166503906,22.381378173828125,153.02406311035156,21.579132080078125,154.18507385253906,24.122100830078125C154.66407775878906,25.1728515625,154.1990509033203,26.43212890625,153.7450714111328,27.6591796875C153.4320831298828,28.505859375,153.1250762939453,29.33740234375,153.13807678222656,30.07421875C153.18104553222656,32.61572265625,155.04908752441406,34.71875,155.7090606689453,37.1240234375ZZZZZL155.7090606689453,37.1240234375ZZZZZM150.6970977783203,52.31451416015625C151.8120880126953,52.76422119140625,154.63404846191406,54.81793212890625,154.83204650878906,54.92877197265625C156.5890655517578,55.91754150390625,157.9800567626953,65.82818603515625,158.0480499267578,69.61773681640625C158.09010314941406,71.95611572265625,158.12709045410156,80.87408447265625,155.65406799316406,80.10308837890625C154.9010772705078,79.86822509765625,153.75209045410156,75.14703369140625,153.5880889892578,72.38433837890625C153.42506408691406,69.62115478515625,151.8550567626953,60.22027587890625,149.4470977783203,55.89459228515625C149.31507873535156,55.65875244140625,149.1250762939453,55.37945556640625,148.9210968017578,55.08062744140625C148.2720489501953,54.12799072265625,147.4840850830078,52.97125244140625,148.00209045410156,52.33502197265625C148.7240753173828,51.44830322265625,149.4280548095703,51.75982666015625,150.2610626220703,52.12799072265625C150.40309143066406,52.19049072265625,150.5480499267578,52.25445556640625,150.6970977783203,52.31451416015625ZZZZZL150.6970977783203,52.31451416015625ZZZZZ" fill-rule="evenodd" stroke="none" style="fill: rgb(43, 44, 47); fill-opacity: 1;"/></g></g></g></g></g></g></g></g></g></svg>